<svg width="40" height="9" viewBox="0 0 40 9" fill="none" xmlns="http://www.w3.org/2000/svg">
<path d="M4.90529 2.45654C4.85939 2.53076 4.79738 2.60449 4.71925 2.67773C4.64113 2.75 4.55177 2.81543 4.45119 2.87402C4.35158 2.93164 4.24269 2.97803 4.12453 3.01318C4.00636 3.04932 3.88429 3.06738 3.75831 3.06738C3.65968 3.06738 3.56105 3.05859 3.46242 3.04102C3.36476 3.02344 3.27052 2.99658 3.1797 2.96045C3.08986 2.92432 3.00587 2.87891 2.92775 2.82422C2.8506 2.76855 2.78322 2.70312 2.7256 2.62793C2.66798 2.55273 2.62257 2.46729 2.58937 2.37158C2.55714 2.27588 2.54103 2.16943 2.54103 2.05225C2.54103 1.93799 2.55763 1.82959 2.59083 1.72705C2.62501 1.62451 2.67238 1.52979 2.73292 1.44287C2.79347 1.35498 2.86525 1.27588 2.94826 1.20557C3.03126 1.13525 3.12208 1.07568 3.22072 1.02686C3.31935 0.977051 3.42335 0.938965 3.53273 0.912598C3.6421 0.88623 3.75392 0.873047 3.86818 0.873047C3.99415 0.873047 4.11232 0.888184 4.22267 0.918457C4.334 0.947754 4.43117 0.989746 4.51417 1.04443C4.59718 1.09814 4.66261 1.16309 4.71046 1.23926C4.75929 1.31445 4.7837 1.39844 4.7837 1.49121C4.7837 1.57715 4.76369 1.65918 4.72365 1.7373C4.68361 1.81445 4.62843 1.88232 4.55812 1.94092C4.48878 1.99951 4.40724 2.0459 4.31349 2.08008C4.22072 2.11426 4.1216 2.13135 4.01613 2.13135C3.93117 2.13135 3.85597 2.12109 3.79054 2.10059C3.72511 2.0791 3.67042 2.0498 3.62648 2.0127C3.58253 1.97559 3.54933 1.93213 3.52687 1.88232C3.50441 1.83252 3.49318 1.77881 3.49318 1.72119C3.49318 1.67334 3.5005 1.62988 3.51515 1.59082C3.53078 1.55078 3.54738 1.5166 3.56495 1.48828C3.58351 1.45996 3.6006 1.43799 3.61622 1.42236C3.63283 1.40576 3.6421 1.39648 3.64406 1.39453C3.64894 1.38965 3.65431 1.38672 3.66017 1.38574C3.66701 1.38379 3.67335 1.38281 3.67921 1.38281C3.69484 1.38281 3.70802 1.3877 3.71876 1.39746C3.72951 1.40723 3.73488 1.41992 3.73488 1.43555C3.73488 1.45312 3.72853 1.46777 3.71583 1.47949C3.71388 1.48047 3.70704 1.4873 3.69533 1.5C3.68361 1.51172 3.67091 1.52832 3.65724 1.5498C3.64357 1.57031 3.63087 1.59521 3.61915 1.62451C3.60841 1.65381 3.60304 1.68604 3.60304 1.72119C3.60304 1.77686 3.61525 1.82373 3.63966 1.86182C3.66505 1.8999 3.69777 1.93115 3.73781 1.95557C3.77785 1.979 3.82228 1.99609 3.87111 2.00684C3.91994 2.0166 3.96876 2.02148 4.01759 2.02148C4.10841 2.02148 4.19337 2.00684 4.27247 1.97754C4.35255 1.94824 4.42238 1.90918 4.48195 1.86035C4.54152 1.81152 4.58839 1.75537 4.62257 1.69189C4.65675 1.62842 4.67384 1.56201 4.67384 1.49268C4.67384 1.4165 4.65236 1.34717 4.60939 1.28467C4.56642 1.22119 4.50831 1.16748 4.43507 1.12354C4.36183 1.07861 4.27589 1.04395 4.17726 1.01953C4.0796 0.995117 3.97511 0.98291 3.86378 0.98291C3.7798 0.98291 3.69142 0.993164 3.59865 1.01367C3.50685 1.0332 3.41603 1.06299 3.32619 1.10303C3.23634 1.14307 3.1504 1.19287 3.06837 1.25244C2.98732 1.31201 2.91603 1.38184 2.85451 1.46191C2.79298 1.54102 2.74367 1.62988 2.70656 1.72852C2.67042 1.82715 2.65236 1.93506 2.65236 2.05225C2.65236 2.15869 2.66701 2.25488 2.6963 2.34082C2.72658 2.42676 2.76808 2.50342 2.82081 2.5708C2.87355 2.63721 2.93507 2.69482 3.00538 2.74365C3.07667 2.79248 3.15285 2.83301 3.2339 2.86523C3.31593 2.89648 3.40138 2.91992 3.49025 2.93555C3.57911 2.9502 3.66749 2.95752 3.75538 2.95752C3.87257 2.95752 3.98536 2.94141 4.09376 2.90918C4.20216 2.87598 4.30226 2.83301 4.39406 2.78027C4.48683 2.72656 4.56886 2.6665 4.64015 2.6001C4.71144 2.53369 4.76808 2.4668 4.81007 2.39941C4.81495 2.39062 4.82179 2.38428 4.83058 2.38037C4.83937 2.37549 4.84865 2.37305 4.85841 2.37305C4.87501 2.37305 4.8882 2.37891 4.89796 2.39062C4.90773 2.40137 4.91261 2.41357 4.91261 2.42725C4.91261 2.43213 4.91212 2.43701 4.91115 2.44189C4.91017 2.44678 4.90822 2.45166 4.90529 2.45654ZM5.9277 2.83887C5.9482 2.86719 5.97457 2.89014 6.0068 2.90771C6.03903 2.92432 6.07858 2.93262 6.12545 2.93262C6.1733 2.93262 6.21676 2.92139 6.25582 2.89893C6.29488 2.87549 6.33053 2.84521 6.36276 2.80811C6.39498 2.771 6.42379 2.72949 6.44918 2.68359C6.47457 2.6377 6.49752 2.5918 6.51803 2.5459C6.52291 2.53516 6.52975 2.52734 6.53854 2.52246C6.54733 2.5166 6.55709 2.51367 6.56783 2.51367C6.58444 2.51367 6.59762 2.51953 6.60738 2.53125C6.61813 2.54297 6.6235 2.55566 6.6235 2.56934C6.6235 2.57422 6.62301 2.57861 6.62203 2.58252C6.62106 2.58545 6.61959 2.58887 6.61764 2.59277C6.55026 2.74121 6.47653 2.85303 6.39645 2.92822C6.31735 3.00342 6.2275 3.04199 6.12692 3.04395C6.06246 3.04395 6.0068 3.03125 5.95992 3.00586C5.91305 2.98145 5.87447 2.94971 5.8442 2.91064C5.81393 2.87061 5.79147 2.82568 5.77682 2.77588C5.76217 2.72607 5.75485 2.67627 5.75485 2.62646C5.75485 2.57666 5.7607 2.53076 5.77242 2.48877C5.78512 2.44678 5.8027 2.41016 5.82516 2.37891C5.8486 2.34766 5.87594 2.32324 5.90719 2.30566C5.93942 2.28809 5.97457 2.2793 6.01266 2.2793C6.03512 2.2793 6.05709 2.28418 6.07858 2.29395C6.10104 2.30273 6.12106 2.31592 6.13863 2.3335C6.15621 2.3501 6.17037 2.37061 6.18112 2.39502C6.19186 2.41943 6.19723 2.44727 6.19723 2.47852C6.19723 2.51855 6.19039 2.55615 6.17672 2.59131C6.16305 2.62646 6.14401 2.65918 6.11959 2.68945C6.09615 2.71973 6.06783 2.74756 6.03463 2.77295C6.00143 2.79834 5.96578 2.82031 5.9277 2.83887ZM5.88375 2.74365C5.91403 2.73096 5.94137 2.71484 5.96578 2.69531C5.99117 2.67578 6.01266 2.6543 6.03024 2.63086C6.04781 2.60742 6.06149 2.58301 6.07125 2.55762C6.08102 2.53125 6.0859 2.50488 6.0859 2.47852C6.0859 2.44922 6.07858 2.42725 6.06393 2.4126C6.04928 2.39697 6.03219 2.38916 6.01266 2.38916C5.98629 2.38916 5.96383 2.39648 5.94528 2.41113C5.92672 2.42578 5.91158 2.44482 5.89987 2.46826C5.88815 2.4917 5.87936 2.51807 5.8735 2.54736C5.86862 2.57568 5.86617 2.604 5.86617 2.63232C5.86617 2.6499 5.86764 2.66846 5.87057 2.68799C5.87447 2.70752 5.87887 2.72607 5.88375 2.74365ZM5.93942 2.05225L6.17379 1.82959C6.18356 1.8208 6.19479 1.81641 6.20748 1.81641C6.22018 1.81641 6.23141 1.82129 6.24117 1.83105C6.25094 1.84082 6.25582 1.85254 6.25582 1.86621C6.25582 1.87988 6.25094 1.89111 6.24117 1.8999L6.0068 2.12256C5.99606 2.13135 5.98483 2.13574 5.97311 2.13574C5.95944 2.13574 5.94772 2.13086 5.93795 2.12109C5.92916 2.11133 5.92477 2.1001 5.92477 2.0874C5.92477 2.07373 5.92965 2.06201 5.93942 2.05225ZM8.04728 2.59424C8.03653 2.6167 8.02286 2.64355 8.00626 2.6748C7.99064 2.70508 7.97257 2.73682 7.95206 2.77002C7.93155 2.80322 7.9086 2.83643 7.88321 2.86963C7.85782 2.90186 7.82999 2.93115 7.79972 2.95752C7.77042 2.98291 7.73868 3.00342 7.7045 3.01904C7.6713 3.03564 7.63565 3.04395 7.59757 3.04395C7.53898 3.04395 7.48868 3.02588 7.44669 2.98975C7.4047 2.95361 7.36905 2.90625 7.33976 2.84766C7.31046 2.78906 7.28653 2.72266 7.26798 2.64844C7.2504 2.57324 7.23673 2.49707 7.22696 2.41992C7.2172 2.3418 7.21036 2.26611 7.20646 2.19287C7.20353 2.11963 7.20206 2.05469 7.20206 1.99805C7.20206 1.91602 7.2045 1.83105 7.20939 1.74316C7.21524 1.65527 7.22403 1.56934 7.23575 1.48535C7.24747 1.40137 7.26212 1.32178 7.2797 1.24658C7.29825 1.17139 7.31974 1.10547 7.34415 1.04883C7.36954 0.992187 7.39835 0.947266 7.43058 0.914062C7.4628 0.880859 7.49942 0.864258 7.54044 0.864258C7.57267 0.864258 7.60148 0.87207 7.62687 0.887695C7.65323 0.902344 7.67521 0.926758 7.69278 0.960938C7.71036 0.995117 7.72403 1.03955 7.7338 1.09424C7.74357 1.14893 7.74845 1.21582 7.74845 1.29492C7.74845 1.39258 7.73819 1.49365 7.71769 1.59814C7.69718 1.70166 7.66935 1.80615 7.63419 1.91162C7.59903 2.01709 7.55753 2.12256 7.50968 2.22803C7.46183 2.33252 7.41056 2.43457 7.35587 2.53418C7.38028 2.6582 7.413 2.75586 7.45401 2.82715C7.49503 2.89746 7.54435 2.93262 7.60196 2.93262C7.64103 2.93262 7.67862 2.91748 7.71476 2.88721C7.75089 2.85596 7.78409 2.81934 7.81437 2.77734C7.84464 2.73535 7.87101 2.69287 7.89347 2.6499C7.9169 2.60596 7.93497 2.5708 7.94767 2.54443C7.95255 2.53467 7.95939 2.52734 7.96817 2.52246C7.97696 2.5166 7.98673 2.51367 7.99747 2.51367C8.01407 2.51367 8.02726 2.51953 8.03702 2.53125C8.04776 2.54297 8.05314 2.55615 8.05314 2.5708C8.05314 2.57666 8.05118 2.58447 8.04728 2.59424ZM7.31339 2.00537C7.31339 2.06787 7.31485 2.12793 7.31778 2.18555C7.32071 2.24316 7.32462 2.29834 7.3295 2.35107C7.37052 2.27197 7.40958 2.18799 7.44669 2.09912C7.4838 2.00928 7.51651 1.91895 7.54483 1.82812C7.57315 1.73633 7.59562 1.64551 7.61222 1.55566C7.6298 1.46484 7.63858 1.37842 7.63858 1.29639C7.63858 1.18115 7.62931 1.09863 7.61075 1.04883C7.5922 0.999023 7.5673 0.974121 7.53605 0.974121C7.51554 0.974121 7.49552 0.988281 7.47599 1.0166C7.45743 1.04492 7.43985 1.0835 7.42325 1.13232C7.40665 1.18115 7.39151 1.23877 7.37784 1.30518C7.36417 1.37158 7.35245 1.44287 7.34269 1.51904C7.3339 1.59521 7.32657 1.6748 7.32071 1.75781C7.31583 1.84082 7.31339 1.92334 7.31339 2.00537ZM8.88219 1.8501C8.88219 1.88721 8.869 1.91895 8.84264 1.94531C8.81725 1.9707 8.786 1.9834 8.74889 1.9834C8.71178 1.9834 8.68004 1.9707 8.65367 1.94531C8.62828 1.91895 8.61559 1.88721 8.61559 1.8501C8.61559 1.83154 8.619 1.81445 8.62584 1.79883C8.63268 1.78223 8.64195 1.76807 8.65367 1.75635C8.66637 1.74365 8.68053 1.73389 8.69615 1.72705C8.71275 1.72021 8.73033 1.7168 8.74889 1.7168C8.76744 1.7168 8.78453 1.72021 8.80016 1.72705C8.81676 1.73389 8.83092 1.74365 8.84264 1.75635C8.85533 1.76807 8.8651 1.78223 8.87193 1.79883C8.87877 1.81445 8.88219 1.83154 8.88219 1.8501ZM8.64488 2.7085C8.64488 2.56787 8.65367 2.42773 8.67125 2.28809C8.6732 2.27441 8.67906 2.2627 8.68883 2.25293C8.69957 2.24219 8.71324 2.23682 8.72984 2.23682C8.74449 2.23682 8.7567 2.24268 8.76646 2.25439C8.77623 2.26514 8.78111 2.27783 8.78111 2.29248C8.78111 2.29834 8.77965 2.31592 8.77672 2.34521C8.77477 2.37451 8.77184 2.40967 8.76793 2.45068C8.765 2.49072 8.76207 2.53369 8.75914 2.57959C8.75719 2.62451 8.75621 2.66602 8.75621 2.7041C8.75621 2.75586 8.76109 2.79785 8.77086 2.83008C8.7816 2.86133 8.79478 2.88574 8.81041 2.90332C8.82701 2.9209 8.8441 2.93262 8.86168 2.93848C8.88023 2.94434 8.89781 2.94727 8.91441 2.94727C8.94176 2.94727 8.97008 2.9375 8.99937 2.91797C9.02867 2.89844 9.05846 2.87109 9.08873 2.83594C9.11998 2.80078 9.15123 2.75879 9.18248 2.70996C9.21373 2.66016 9.24449 2.60498 9.27477 2.54443C9.27965 2.53467 9.28648 2.52734 9.29527 2.52246C9.30406 2.5166 9.31383 2.51367 9.32457 2.51367C9.34019 2.51367 9.35289 2.51953 9.36266 2.53125C9.3734 2.54297 9.37877 2.55566 9.37877 2.56934C9.37877 2.5791 9.37682 2.5874 9.37291 2.59424C9.36119 2.6167 9.34654 2.64404 9.32896 2.67627C9.31139 2.7085 9.29137 2.7417 9.26891 2.77588C9.24644 2.81006 9.22154 2.84424 9.1942 2.87842C9.16783 2.91162 9.13951 2.94189 9.10924 2.96924C9.07896 2.99561 9.04723 3.01709 9.01402 3.03369C8.98082 3.05029 8.94713 3.05859 8.91295 3.05859C8.869 3.05859 8.83043 3.04932 8.79723 3.03076C8.76402 3.01221 8.7357 2.9873 8.71227 2.95605C8.6898 2.9248 8.67271 2.88818 8.661 2.84619C8.65025 2.80322 8.64488 2.75732 8.64488 2.7085ZM8.80016 1.8501C8.80016 1.83643 8.79478 1.82471 8.78404 1.81494C8.77428 1.8042 8.76256 1.79883 8.74889 1.79883C8.73521 1.79883 8.7235 1.8042 8.71373 1.81494C8.70396 1.82471 8.69908 1.83643 8.69908 1.8501C8.69908 1.86377 8.70396 1.87549 8.71373 1.88525C8.7235 1.89502 8.73521 1.8999 8.74889 1.8999C8.76256 1.8999 8.77428 1.89502 8.78404 1.88525C8.79478 1.87549 8.80016 1.86377 8.80016 1.8501ZM11.0999 2.59131C11.096 2.59912 11.0877 2.61572 11.075 2.64111C11.0633 2.66553 11.0477 2.69385 11.0281 2.72607C11.0096 2.7583 10.9876 2.79199 10.9622 2.82715C10.9368 2.8623 10.9085 2.89453 10.8773 2.92383C10.846 2.95312 10.8123 2.97754 10.7762 2.99707C10.74 3.01562 10.702 3.0249 10.6619 3.0249C10.6053 3.0249 10.5574 3.00684 10.5184 2.9707C10.4803 2.93457 10.4524 2.88916 10.4349 2.83447C10.4017 2.89014 10.3621 2.93457 10.3162 2.96777C10.2703 3 10.2244 3.01611 10.1785 3.01611C10.1424 3.01611 10.1097 3.00977 10.0804 2.99707C10.0511 2.9834 10.0262 2.96484 10.0057 2.94141C9.98516 2.91699 9.96905 2.88867 9.95733 2.85645C9.94659 2.82422 9.94122 2.78906 9.94122 2.75098C9.94122 2.6748 9.95391 2.60791 9.9793 2.55029C10.0057 2.4917 10.0389 2.44287 10.0789 2.40381C10.119 2.36475 10.1629 2.33545 10.2107 2.31592C10.2596 2.29639 10.3065 2.28662 10.3514 2.28662C10.3816 2.28662 10.4095 2.29102 10.4349 2.2998C10.4603 2.30762 10.4817 2.31641 10.4993 2.32617C10.5179 2.33594 10.532 2.34521 10.5418 2.354C10.5516 2.36182 10.5569 2.36621 10.5579 2.36719C10.5687 2.37988 10.574 2.39307 10.574 2.40674C10.574 2.42139 10.5687 2.43457 10.5579 2.44629C10.5472 2.45703 10.5345 2.4624 10.5198 2.4624C10.5042 2.4624 10.491 2.45703 10.4803 2.44629C10.4783 2.44434 10.4739 2.44092 10.4671 2.43604C10.4603 2.43018 10.451 2.42432 10.4393 2.41846C10.4275 2.4126 10.4134 2.40771 10.3968 2.40381C10.3812 2.39893 10.3631 2.39648 10.3426 2.39648C10.3123 2.39648 10.2801 2.40332 10.2459 2.41699C10.2117 2.43066 10.1805 2.45215 10.1522 2.48145C10.1238 2.50977 10.0999 2.5459 10.0804 2.58984C10.0618 2.63281 10.0525 2.68408 10.0525 2.74365C10.0525 2.76221 10.0545 2.78125 10.0584 2.80078C10.0623 2.81934 10.0691 2.83643 10.0789 2.85205C10.0887 2.86768 10.1019 2.88037 10.1185 2.89014C10.1351 2.8999 10.1556 2.90479 10.18 2.90479C10.1976 2.90479 10.2176 2.89893 10.24 2.88721C10.2635 2.87549 10.2855 2.85742 10.306 2.83301C10.3274 2.80859 10.3465 2.77783 10.3631 2.74072C10.3807 2.70361 10.3929 2.65967 10.3997 2.60889C10.4017 2.59521 10.408 2.58398 10.4188 2.5752C10.4295 2.56543 10.4422 2.56055 10.4568 2.56055C10.4705 2.56055 10.4822 2.56592 10.492 2.57666C10.5027 2.5874 10.5086 2.59961 10.5096 2.61328C10.5106 2.63184 10.5125 2.6582 10.5154 2.69238C10.5184 2.72559 10.5247 2.75879 10.5345 2.79199C10.5452 2.8252 10.5608 2.854 10.5814 2.87842C10.6019 2.90283 10.6302 2.91504 10.6663 2.91504C10.6898 2.91504 10.7127 2.90869 10.7352 2.896C10.7586 2.8833 10.7811 2.8667 10.8025 2.84619C10.825 2.82471 10.846 2.80078 10.8655 2.77441C10.886 2.74707 10.9046 2.71973 10.9212 2.69238C10.9378 2.66504 10.9524 2.63867 10.9651 2.61328C10.9778 2.58789 10.9886 2.56592 10.9974 2.54736C11.0023 2.53662 11.0091 2.52832 11.0179 2.52246C11.0276 2.5166 11.0379 2.51367 11.0486 2.51367C11.0652 2.51367 11.0784 2.52002 11.0882 2.53271C11.0989 2.54443 11.1043 2.55713 11.1043 2.5708C11.1043 2.57764 11.1028 2.58447 11.0999 2.59131ZM14.9128 2.32324C14.9128 2.33691 14.9079 2.34912 14.8981 2.35986C14.8884 2.36963 14.8742 2.37451 14.8557 2.37451C14.842 2.37451 14.8273 2.37402 14.8117 2.37305C14.7971 2.37207 14.7756 2.37158 14.7473 2.37158C14.7326 2.37158 14.7106 2.37256 14.6814 2.37451C14.653 2.37549 14.6203 2.37744 14.5832 2.38037C14.5471 2.3833 14.508 2.38672 14.466 2.39062C14.424 2.39355 14.3815 2.39697 14.3386 2.40088C14.3396 2.40576 14.34 2.41357 14.34 2.42432C14.34 2.51904 14.319 2.60303 14.2771 2.67627C14.236 2.74951 14.1809 2.81152 14.1115 2.8623C14.0432 2.91211 13.9636 2.9502 13.8728 2.97656C13.7819 3.00195 13.6877 3.01465 13.59 3.01465C13.5197 3.01465 13.4533 3.00488 13.3908 2.98535C13.3293 2.96582 13.2751 2.9375 13.2282 2.90039C13.1823 2.86328 13.1457 2.81787 13.1184 2.76416C13.092 2.71045 13.0788 2.64893 13.0788 2.57959C13.0788 2.52393 13.09 2.47266 13.1125 2.42578C13.135 2.37891 13.1652 2.3374 13.2033 2.30127C13.2424 2.26416 13.2883 2.23291 13.341 2.20752C13.3938 2.18213 13.4509 2.1626 13.5124 2.14893C13.4948 2.14111 13.4763 2.13037 13.4567 2.1167C13.4382 2.10205 13.4211 2.08496 13.4055 2.06543C13.3898 2.04492 13.3767 2.02197 13.3659 1.99658C13.3562 1.97021 13.3513 1.94141 13.3513 1.91016C13.3513 1.83594 13.3679 1.77148 13.4011 1.7168C13.4353 1.66211 13.4787 1.6167 13.5315 1.58057C13.5842 1.54443 13.6423 1.51758 13.7058 1.5C13.7702 1.48242 13.8327 1.47363 13.8933 1.47363C13.946 1.47363 13.9948 1.47998 14.0398 1.49268C14.0856 1.50439 14.1247 1.52148 14.1569 1.54395C14.1901 1.56543 14.216 1.59229 14.2346 1.62451C14.2541 1.65576 14.2639 1.69043 14.2639 1.72852C14.2639 1.76074 14.2575 1.7915 14.2448 1.8208C14.2321 1.84912 14.2146 1.87402 14.1921 1.89551C14.1706 1.91699 14.1447 1.93408 14.1145 1.94678C14.0852 1.9585 14.0529 1.96436 14.0178 1.96436C13.9865 1.96436 13.9587 1.95996 13.9343 1.95117C13.9108 1.94141 13.8908 1.93018 13.8742 1.91748C13.8576 1.90381 13.8449 1.89014 13.8361 1.87646C13.8273 1.86182 13.823 1.84961 13.823 1.83984C13.823 1.82422 13.8278 1.81104 13.8376 1.80029C13.8483 1.78955 13.8615 1.78418 13.8772 1.78418C13.8879 1.78418 13.8962 1.78711 13.9021 1.79297C13.9079 1.79785 13.9138 1.80371 13.9196 1.81055C13.9294 1.82227 13.9411 1.83398 13.9548 1.8457C13.9694 1.85742 13.9924 1.86328 14.0236 1.86328C14.0451 1.86328 14.0637 1.85986 14.0793 1.85303C14.0949 1.84521 14.1081 1.83545 14.1189 1.82373C14.1296 1.81104 14.1374 1.79736 14.1423 1.78271C14.1481 1.76709 14.1511 1.75195 14.1511 1.7373C14.1511 1.71875 14.1457 1.7002 14.135 1.68164C14.1252 1.66309 14.1101 1.64648 14.0896 1.63184C14.069 1.61719 14.0427 1.60547 14.0105 1.59668C13.9782 1.58789 13.9401 1.5835 13.8962 1.5835C13.8523 1.5835 13.8049 1.58984 13.7541 1.60254C13.7043 1.61426 13.6574 1.63281 13.6135 1.6582C13.5705 1.68262 13.5344 1.71484 13.5051 1.75488C13.4768 1.79395 13.4626 1.84033 13.4626 1.89404C13.4626 1.9292 13.4685 1.95898 13.4802 1.9834C13.4929 2.00684 13.51 2.02637 13.5315 2.04199C13.5529 2.05762 13.5783 2.07031 13.6076 2.08008C13.6379 2.08887 13.6711 2.09668 13.7072 2.10352C13.7209 2.10645 13.7336 2.10938 13.7453 2.1123C13.758 2.11426 13.7688 2.11768 13.7775 2.12256C13.7873 2.12646 13.7946 2.13232 13.7995 2.14014C13.8054 2.14697 13.8083 2.15674 13.8083 2.16943C13.8083 2.18506 13.8029 2.19775 13.7922 2.20752C13.7824 2.21631 13.7688 2.2207 13.7512 2.2207C13.7336 2.2207 13.7077 2.22168 13.6735 2.22363C13.6394 2.22559 13.6013 2.23096 13.5593 2.23975C13.5183 2.24756 13.4758 2.25928 13.4318 2.2749C13.3879 2.28955 13.3479 2.31055 13.3117 2.33789C13.2766 2.36426 13.2473 2.39697 13.2238 2.43604C13.2014 2.4751 13.1901 2.52246 13.1901 2.57812C13.1901 2.63379 13.2004 2.68262 13.2209 2.72461C13.2424 2.76562 13.2712 2.7998 13.3073 2.82715C13.3435 2.85352 13.3855 2.87354 13.4333 2.88721C13.4821 2.8999 13.5344 2.90625 13.59 2.90625C13.6682 2.90625 13.7453 2.89697 13.8215 2.87842C13.8986 2.85889 13.9675 2.82959 14.028 2.79053C14.0886 2.75146 14.1374 2.70215 14.1745 2.64258C14.2126 2.58301 14.2316 2.51318 14.2316 2.43311C14.2316 2.4292 14.2312 2.42578 14.2302 2.42285C14.2302 2.41895 14.2302 2.41455 14.2302 2.40967C14.1774 2.41455 14.1296 2.41943 14.0866 2.42432C14.0446 2.42822 14.0114 2.43115 13.987 2.43311C13.9792 2.43408 13.9724 2.43506 13.9665 2.43604C13.9616 2.43604 13.9577 2.43604 13.9548 2.43604C13.9382 2.43604 13.924 2.43115 13.9123 2.42139C13.9006 2.41162 13.8947 2.39746 13.8947 2.37891C13.8947 2.36523 13.8991 2.35352 13.9079 2.34375C13.9177 2.33301 13.9304 2.32666 13.946 2.32471C13.9743 2.32178 14.0109 2.31787 14.0559 2.31299C14.1008 2.30811 14.1496 2.30371 14.2023 2.2998C14.2561 2.29492 14.3112 2.29053 14.3679 2.28662C14.4245 2.28174 14.4782 2.27734 14.529 2.27344C14.5808 2.26953 14.6276 2.2666 14.6696 2.26465C14.7126 2.2627 14.7468 2.26172 14.7722 2.26172C14.8269 2.26172 14.864 2.2666 14.8835 2.27637C14.903 2.28613 14.9128 2.30176 14.9128 2.32324ZM19.1197 2.45654C19.0738 2.53076 19.0118 2.60449 18.9337 2.67773C18.8556 2.75 18.7662 2.81543 18.6656 2.87402C18.566 2.93164 18.4571 2.97803 18.339 3.01318C18.2208 3.04932 18.0987 3.06738 17.9728 3.06738C17.8741 3.06738 17.7755 3.05859 17.6769 3.04102C17.5792 3.02344 17.485 2.99658 17.3941 2.96045C17.3043 2.92432 17.2203 2.87891 17.1422 2.82422C17.065 2.76855 16.9977 2.70312 16.94 2.62793C16.8824 2.55273 16.837 2.46729 16.8038 2.37158C16.7716 2.27588 16.7555 2.16943 16.7555 2.05225C16.7555 1.93799 16.7721 1.82959 16.8053 1.72705C16.8395 1.62451 16.8868 1.52979 16.9474 1.44287C17.0079 1.35498 17.0797 1.27588 17.1627 1.20557C17.2457 1.13525 17.3365 1.07568 17.4352 1.02686C17.5338 0.977051 17.6378 0.938965 17.7472 0.912598C17.8565 0.88623 17.9684 0.873047 18.0826 0.873047C18.2086 0.873047 18.3268 0.888184 18.4371 0.918457C18.5484 0.947754 18.6456 0.989746 18.7286 1.04443C18.8116 1.09814 18.8771 1.16309 18.9249 1.23926C18.9737 1.31445 18.9981 1.39844 18.9981 1.49121C18.9981 1.57715 18.9781 1.65918 18.9381 1.7373C18.898 1.81445 18.8429 1.88232 18.7726 1.94092C18.7032 1.99951 18.6217 2.0459 18.5279 2.08008C18.4352 2.11426 18.336 2.13135 18.2306 2.13135C18.1456 2.13135 18.0704 2.12109 18.005 2.10059C17.9396 2.0791 17.8849 2.0498 17.8409 2.0127C17.797 1.97559 17.7638 1.93213 17.7413 1.88232C17.7188 1.83252 17.7076 1.77881 17.7076 1.72119C17.7076 1.67334 17.7149 1.62988 17.7296 1.59082C17.7452 1.55078 17.7618 1.5166 17.7794 1.48828C17.798 1.45996 17.815 1.43799 17.8307 1.42236C17.8473 1.40576 17.8565 1.39648 17.8585 1.39453C17.8634 1.38965 17.8688 1.38672 17.8746 1.38574C17.8814 1.38379 17.8878 1.38281 17.8937 1.38281C17.9093 1.38281 17.9225 1.3877 17.9332 1.39746C17.9439 1.40723 17.9493 1.41992 17.9493 1.43555C17.9493 1.45312 17.943 1.46777 17.9303 1.47949C17.9283 1.48047 17.9215 1.4873 17.9098 1.5C17.898 1.51172 17.8854 1.52832 17.8717 1.5498C17.858 1.57031 17.8453 1.59521 17.8336 1.62451C17.8229 1.65381 17.8175 1.68604 17.8175 1.72119C17.8175 1.77686 17.8297 1.82373 17.8541 1.86182C17.8795 1.8999 17.9122 1.93115 17.9522 1.95557C17.9923 1.979 18.0367 1.99609 18.0855 2.00684C18.1344 2.0166 18.1832 2.02148 18.232 2.02148C18.3229 2.02148 18.4078 2.00684 18.4869 1.97754C18.567 1.94824 18.6368 1.90918 18.6964 1.86035C18.756 1.81152 18.8028 1.75537 18.837 1.69189C18.8712 1.62842 18.8883 1.56201 18.8883 1.49268C18.8883 1.4165 18.8668 1.34717 18.8238 1.28467C18.7809 1.22119 18.7228 1.16748 18.6495 1.12354C18.5763 1.07861 18.4903 1.04395 18.3917 1.01953C18.294 0.995117 18.1896 0.98291 18.0782 0.98291C17.9942 0.98291 17.9059 0.993164 17.8131 1.01367C17.7213 1.0332 17.6305 1.06299 17.5406 1.10303C17.4508 1.14307 17.3648 1.19287 17.2828 1.25244C17.2018 1.31201 17.1305 1.38184 17.0689 1.46191C17.0074 1.54102 16.9581 1.62988 16.921 1.72852C16.8849 1.82715 16.8668 1.93506 16.8668 2.05225C16.8668 2.15869 16.8814 2.25488 16.9107 2.34082C16.941 2.42676 16.9825 2.50342 17.0353 2.5708C17.088 2.63721 17.1495 2.69482 17.2198 2.74365C17.2911 2.79248 17.3673 2.83301 17.4483 2.86523C17.5304 2.89648 17.6158 2.91992 17.7047 2.93555C17.7936 2.9502 17.8819 2.95752 17.9698 2.95752C18.087 2.95752 18.1998 2.94141 18.3082 2.90918C18.4166 2.87598 18.5167 2.83301 18.6085 2.78027C18.7013 2.72656 18.7833 2.6665 18.8546 2.6001C18.9259 2.53369 18.9825 2.4668 19.0245 2.39941C19.0294 2.39062 19.0362 2.38428 19.045 2.38037C19.0538 2.37549 19.0631 2.37305 19.0729 2.37305C19.0895 2.37305 19.1026 2.37891 19.1124 2.39062C19.1222 2.40137 19.1271 2.41357 19.1271 2.42725C19.1271 2.43213 19.1266 2.43701 19.1256 2.44189C19.1246 2.44678 19.1227 2.45166 19.1197 2.45654ZM21.0987 2.59131C21.0948 2.59912 21.0865 2.61572 21.0738 2.64111C21.0621 2.66553 21.0464 2.69385 21.0269 2.72607C21.0084 2.7583 20.9864 2.79199 20.961 2.82715C20.9356 2.8623 20.9073 2.89453 20.876 2.92383C20.8448 2.95312 20.8111 2.97754 20.775 2.99707C20.7388 3.01562 20.7007 3.0249 20.6607 3.0249C20.6041 3.0249 20.5562 3.00684 20.5171 2.9707C20.4791 2.93457 20.4512 2.88916 20.4336 2.83447C20.4004 2.89014 20.3609 2.93457 20.315 2.96777C20.2691 3 20.2232 3.01611 20.1773 3.01611C20.1412 3.01611 20.1084 3.00977 20.0792 2.99707C20.0499 2.9834 20.025 2.96484 20.0044 2.94141C19.9839 2.91699 19.9678 2.88867 19.9561 2.85645C19.9454 2.82422 19.94 2.78906 19.94 2.75098C19.94 2.6748 19.9527 2.60791 19.9781 2.55029C20.0044 2.4917 20.0376 2.44287 20.0777 2.40381C20.1177 2.36475 20.1617 2.33545 20.2095 2.31592C20.2584 2.29639 20.3052 2.28662 20.3501 2.28662C20.3804 2.28662 20.4083 2.29102 20.4336 2.2998C20.459 2.30762 20.4805 2.31641 20.4981 2.32617C20.5167 2.33594 20.5308 2.34521 20.5406 2.354C20.5503 2.36182 20.5557 2.36621 20.5567 2.36719C20.5674 2.37988 20.5728 2.39307 20.5728 2.40674C20.5728 2.42139 20.5674 2.43457 20.5567 2.44629C20.5459 2.45703 20.5333 2.4624 20.5186 2.4624C20.503 2.4624 20.4898 2.45703 20.4791 2.44629C20.4771 2.44434 20.4727 2.44092 20.4659 2.43604C20.459 2.43018 20.4498 2.42432 20.438 2.41846C20.4263 2.4126 20.4122 2.40771 20.3956 2.40381C20.3799 2.39893 20.3619 2.39648 20.3414 2.39648C20.3111 2.39648 20.2789 2.40332 20.2447 2.41699C20.2105 2.43066 20.1792 2.45215 20.1509 2.48145C20.1226 2.50977 20.0987 2.5459 20.0792 2.58984C20.0606 2.63281 20.0513 2.68408 20.0513 2.74365C20.0513 2.76221 20.0533 2.78125 20.0572 2.80078C20.0611 2.81934 20.0679 2.83643 20.0777 2.85205C20.0875 2.86768 20.1006 2.88037 20.1172 2.89014C20.1338 2.8999 20.1543 2.90479 20.1788 2.90479C20.1963 2.90479 20.2164 2.89893 20.2388 2.88721C20.2623 2.87549 20.2842 2.85742 20.3047 2.83301C20.3262 2.80859 20.3453 2.77783 20.3619 2.74072C20.3794 2.70361 20.3917 2.65967 20.3985 2.60889C20.4004 2.59521 20.4068 2.58398 20.4175 2.5752C20.4283 2.56543 20.441 2.56055 20.4556 2.56055C20.4693 2.56055 20.481 2.56592 20.4908 2.57666C20.5015 2.5874 20.5074 2.59961 20.5084 2.61328C20.5093 2.63184 20.5113 2.6582 20.5142 2.69238C20.5171 2.72559 20.5235 2.75879 20.5333 2.79199C20.544 2.8252 20.5596 2.854 20.5801 2.87842C20.6006 2.90283 20.629 2.91504 20.6651 2.91504C20.6885 2.91504 20.7115 2.90869 20.7339 2.896C20.7574 2.8833 20.7798 2.8667 20.8013 2.84619C20.8238 2.82471 20.8448 2.80078 20.8643 2.77441C20.8848 2.74707 20.9034 2.71973 20.92 2.69238C20.9366 2.66504 20.9512 2.63867 20.9639 2.61328C20.9766 2.58789 20.9874 2.56592 20.9961 2.54736C21.001 2.53662 21.0079 2.52832 21.0167 2.52246C21.0264 2.5166 21.0367 2.51367 21.0474 2.51367C21.064 2.51367 21.0772 2.52002 21.087 2.53271C21.0977 2.54443 21.1031 2.55713 21.1031 2.5708C21.1031 2.57764 21.1016 2.58447 21.0987 2.59131ZM22.9268 2.59424C22.9238 2.6001 22.9175 2.6123 22.9077 2.63086C22.8979 2.64844 22.8853 2.66943 22.8696 2.69385C22.854 2.71729 22.8354 2.74268 22.814 2.77002C22.7925 2.79639 22.769 2.8208 22.7437 2.84326C22.7183 2.86572 22.6909 2.88428 22.6616 2.89893C22.6323 2.91357 22.6021 2.9209 22.5708 2.9209C22.52 2.9209 22.4771 2.91211 22.4419 2.89453C22.4067 2.87598 22.3779 2.85547 22.3555 2.83301C22.3398 2.86719 22.3208 2.89844 22.2983 2.92676C22.2759 2.95508 22.251 2.97949 22.2236 3C22.1963 3.02148 22.167 3.03809 22.1357 3.0498C22.1055 3.06152 22.0742 3.06738 22.042 3.06738C21.9824 3.06738 21.9316 3.0498 21.8896 3.01465C21.8477 2.97949 21.8125 2.93262 21.7842 2.87402C21.7568 2.81445 21.7354 2.74561 21.7197 2.66748C21.7041 2.58936 21.6919 2.50732 21.6831 2.42139C21.6753 2.33545 21.6704 2.24854 21.6685 2.16064C21.6665 2.07275 21.6655 1.98926 21.6655 1.91016C21.6655 1.75879 21.6699 1.62793 21.6787 1.51758C21.6875 1.40625 21.6992 1.31201 21.7139 1.23486C21.7295 1.15674 21.7471 1.09375 21.7666 1.0459C21.7871 0.99707 21.8086 0.959473 21.8311 0.933105C21.8535 0.905762 21.8765 0.887207 21.8999 0.877441C21.9233 0.867676 21.9463 0.862793 21.9688 0.862793C22.0049 0.862793 22.0366 0.873535 22.064 0.89502C22.0923 0.916504 22.1157 0.946777 22.1343 0.98584C22.1538 1.02393 22.1685 1.07031 22.1782 1.125C22.188 1.17969 22.1929 1.23975 22.1929 1.30518C22.1929 1.40967 22.1816 1.51758 22.1592 1.62891C22.1367 1.74023 22.1074 1.85156 22.0713 1.96289C22.0361 2.07324 21.9966 2.18213 21.9526 2.28955C21.9087 2.396 21.8652 2.49707 21.8223 2.59277C21.8281 2.64062 21.8369 2.68652 21.8486 2.73047C21.8604 2.77344 21.8755 2.81201 21.894 2.84619C21.9126 2.87939 21.9346 2.90625 21.96 2.92676C21.9854 2.94629 22.0146 2.95605 22.0479 2.95605C22.0811 2.95605 22.1123 2.94678 22.1416 2.92822C22.1709 2.90869 22.1963 2.88379 22.2178 2.85352C22.2393 2.82227 22.2559 2.78711 22.2676 2.74805C22.2803 2.70898 22.2866 2.66895 22.2866 2.62793C22.2866 2.60059 22.2837 2.57324 22.2778 2.5459C22.2729 2.51758 22.2646 2.49268 22.2529 2.47119C22.2422 2.44873 22.2285 2.43066 22.2119 2.41699C22.1953 2.40332 22.1753 2.39648 22.1519 2.39648C22.1343 2.39648 22.1206 2.40039 22.1108 2.4082C22.1011 2.41504 22.0938 2.42334 22.0889 2.43311C22.084 2.44189 22.0811 2.45068 22.0801 2.45947C22.0791 2.46826 22.0786 2.47412 22.0786 2.47705C22.0786 2.49072 22.0815 2.50439 22.0874 2.51807C22.0933 2.53174 22.1045 2.54395 22.1211 2.55469C22.1377 2.56641 22.146 2.58252 22.146 2.60303C22.146 2.61963 22.1401 2.63281 22.1284 2.64258C22.1177 2.65234 22.1055 2.65723 22.0918 2.65723C22.0723 2.65723 22.0547 2.65137 22.0391 2.63965C22.0244 2.62793 22.0117 2.61328 22.001 2.5957C21.9902 2.57715 21.9819 2.55762 21.9761 2.53711C21.9702 2.5166 21.9673 2.49756 21.9673 2.47998C21.9673 2.45166 21.9722 2.42578 21.9819 2.40234C21.9917 2.37793 22.0049 2.35742 22.0215 2.34082C22.0391 2.32324 22.0586 2.31006 22.0801 2.30127C22.1025 2.2915 22.126 2.28662 22.1504 2.28662C22.1924 2.28662 22.2285 2.29639 22.2588 2.31592C22.29 2.33545 22.3159 2.36133 22.3364 2.39355C22.3569 2.42578 22.3721 2.4624 22.3818 2.50342C22.3916 2.54443 22.3965 2.58594 22.3965 2.62793C22.3965 2.65234 22.395 2.67627 22.3921 2.69971C22.396 2.70752 22.4023 2.71777 22.4111 2.73047C22.4199 2.74316 22.4316 2.75537 22.4463 2.76709C22.4609 2.77881 22.4785 2.78906 22.499 2.79785C22.5195 2.80664 22.5435 2.81104 22.5708 2.81104C22.5942 2.81104 22.6182 2.80225 22.6426 2.78467C22.668 2.76611 22.6919 2.74365 22.7144 2.71729C22.7378 2.68994 22.7593 2.66113 22.7788 2.63086C22.7983 2.59961 22.8145 2.5708 22.8271 2.54443C22.832 2.53467 22.8389 2.52734 22.8477 2.52246C22.8564 2.5166 22.8662 2.51367 22.877 2.51367C22.8936 2.51367 22.9067 2.51953 22.9165 2.53125C22.9272 2.54297 22.9326 2.55615 22.9326 2.5708C22.9326 2.57666 22.9307 2.58447 22.9268 2.59424ZM21.7944 2.40527C21.8276 2.32324 21.8613 2.2373 21.8955 2.14746C21.9297 2.05664 21.9604 1.96436 21.9878 1.87061C22.0151 1.77686 22.0376 1.68213 22.0552 1.58643C22.0728 1.49072 22.0815 1.39648 22.0815 1.30371C22.0815 1.26855 22.0796 1.23193 22.0757 1.19385C22.0728 1.15479 22.0669 1.11914 22.0581 1.08691C22.0493 1.05469 22.0371 1.02783 22.0215 1.00635C22.0068 0.984863 21.9878 0.974121 21.9644 0.974121C21.9565 0.974121 21.9463 0.979492 21.9336 0.990234C21.9219 1 21.9092 1.01807 21.8955 1.04443C21.8818 1.06982 21.8682 1.10547 21.8545 1.15137C21.8408 1.19727 21.8281 1.25586 21.8164 1.32715C21.8057 1.39746 21.7964 1.48242 21.7886 1.58203C21.7817 1.68164 21.7783 1.79883 21.7783 1.93359C21.7783 1.97852 21.7788 2.02441 21.7798 2.07129C21.7808 2.11719 21.7817 2.16113 21.7827 2.20312C21.7847 2.24512 21.7866 2.28369 21.7886 2.31885C21.7905 2.354 21.7925 2.38281 21.7944 2.40527ZM23.6987 2.83887C23.7192 2.86719 23.7456 2.89014 23.7778 2.90771C23.81 2.92432 23.8496 2.93262 23.8964 2.93262C23.9443 2.93262 23.9877 2.92139 24.0268 2.89893C24.0659 2.87549 24.1015 2.84521 24.1337 2.80811C24.166 2.771 24.1948 2.72949 24.2202 2.68359C24.2456 2.6377 24.2685 2.5918 24.289 2.5459C24.2939 2.53516 24.3007 2.52734 24.3095 2.52246C24.3183 2.5166 24.3281 2.51367 24.3388 2.51367C24.3554 2.51367 24.3686 2.51953 24.3784 2.53125C24.3891 2.54297 24.3945 2.55566 24.3945 2.56934C24.3945 2.57422 24.394 2.57861 24.393 2.58252C24.392 2.58545 24.3906 2.58887 24.3886 2.59277C24.3212 2.74121 24.2475 2.85303 24.1674 2.92822C24.0883 3.00342 23.9985 3.04199 23.8979 3.04395C23.8334 3.04395 23.7778 3.03125 23.7309 3.00586C23.684 2.98145 23.6455 2.94971 23.6152 2.91064C23.5849 2.87061 23.5624 2.82568 23.5478 2.77588C23.5332 2.72607 23.5258 2.67627 23.5258 2.62646C23.5258 2.57666 23.5317 2.53076 23.5434 2.48877C23.5561 2.44678 23.5737 2.41016 23.5961 2.37891C23.6196 2.34766 23.6469 2.32324 23.6782 2.30566C23.7104 2.28809 23.7456 2.2793 23.7836 2.2793C23.8061 2.2793 23.8281 2.28418 23.8496 2.29395C23.872 2.30273 23.892 2.31592 23.9096 2.3335C23.9272 2.3501 23.9414 2.37061 23.9521 2.39502C23.9628 2.41943 23.9682 2.44727 23.9682 2.47852C23.9682 2.51855 23.9614 2.55615 23.9477 2.59131C23.934 2.62646 23.915 2.65918 23.8906 2.68945C23.8671 2.71973 23.8388 2.74756 23.8056 2.77295C23.7724 2.79834 23.7368 2.82031 23.6987 2.83887ZM23.6547 2.74365C23.685 2.73096 23.7124 2.71484 23.7368 2.69531C23.7622 2.67578 23.7836 2.6543 23.8012 2.63086C23.8188 2.60742 23.8325 2.58301 23.8422 2.55762C23.852 2.53125 23.8569 2.50488 23.8569 2.47852C23.8569 2.44922 23.8496 2.42725 23.8349 2.4126C23.8203 2.39697 23.8032 2.38916 23.7836 2.38916C23.7573 2.38916 23.7348 2.39648 23.7163 2.41113C23.6977 2.42578 23.6826 2.44482 23.6708 2.46826C23.6591 2.4917 23.6503 2.51807 23.6445 2.54736C23.6396 2.57568 23.6372 2.604 23.6372 2.63232C23.6372 2.6499 23.6386 2.66846 23.6416 2.68799C23.6455 2.70752 23.6499 2.72607 23.6547 2.74365ZM25.8183 2.59424C25.8075 2.6167 25.7938 2.64355 25.7772 2.6748C25.7616 2.70508 25.7436 2.73682 25.723 2.77002C25.7025 2.80322 25.6796 2.83643 25.6542 2.86963C25.6288 2.90186 25.601 2.93115 25.5707 2.95752C25.5414 2.98291 25.5097 3.00342 25.4755 3.01904C25.4423 3.03564 25.4066 3.04395 25.3686 3.04395C25.31 3.04395 25.2597 3.02588 25.2177 2.98975C25.1757 2.95361 25.14 2.90625 25.1107 2.84766C25.0814 2.78906 25.0575 2.72266 25.039 2.64844C25.0214 2.57324 25.0077 2.49707 24.9979 2.41992C24.9882 2.3418 24.9813 2.26611 24.9774 2.19287C24.9745 2.11963 24.973 2.05469 24.973 1.99805C24.973 1.91602 24.9755 1.83105 24.9804 1.74316C24.9862 1.65527 24.995 1.56934 25.0067 1.48535C25.0185 1.40137 25.0331 1.32178 25.0507 1.24658C25.0692 1.17139 25.0907 1.10547 25.1151 1.04883C25.1405 0.992187 25.1693 0.947266 25.2016 0.914062C25.2338 0.880859 25.2704 0.864258 25.3114 0.864258C25.3436 0.864258 25.3725 0.87207 25.3978 0.887695C25.4242 0.902344 25.4462 0.926758 25.4638 0.960938C25.4813 0.995117 25.495 1.03955 25.5048 1.09424C25.5145 1.14893 25.5194 1.21582 25.5194 1.29492C25.5194 1.39258 25.5092 1.49365 25.4887 1.59814C25.4682 1.70166 25.4403 1.80615 25.4052 1.91162C25.37 2.01709 25.3285 2.12256 25.2807 2.22803C25.2328 2.33252 25.1815 2.43457 25.1269 2.53418C25.1513 2.6582 25.184 2.75586 25.225 2.82715C25.266 2.89746 25.3153 2.93262 25.3729 2.93262C25.412 2.93262 25.4496 2.91748 25.4857 2.88721C25.5219 2.85596 25.5551 2.81934 25.5853 2.77734C25.6156 2.73535 25.642 2.69287 25.6644 2.6499C25.6879 2.60596 25.706 2.5708 25.7186 2.54443C25.7235 2.53467 25.7304 2.52734 25.7392 2.52246C25.7479 2.5166 25.7577 2.51367 25.7685 2.51367C25.7851 2.51367 25.7982 2.51953 25.808 2.53125C25.8187 2.54297 25.8241 2.55615 25.8241 2.5708C25.8241 2.57666 25.8222 2.58447 25.8183 2.59424ZM25.0844 2.00537C25.0844 2.06787 25.0858 2.12793 25.0888 2.18555C25.0917 2.24316 25.0956 2.29834 25.1005 2.35107C25.1415 2.27197 25.1806 2.18799 25.2177 2.09912C25.2548 2.00928 25.2875 1.91895 25.3158 1.82812C25.3441 1.73633 25.3666 1.64551 25.3832 1.55566C25.4008 1.46484 25.4096 1.37842 25.4096 1.29639C25.4096 1.18115 25.4003 1.09863 25.3817 1.04883C25.3632 0.999023 25.3383 0.974121 25.307 0.974121C25.2865 0.974121 25.2665 0.988281 25.247 1.0166C25.2284 1.04492 25.2108 1.0835 25.1942 1.13232C25.1776 1.18115 25.1625 1.23877 25.1488 1.30518C25.1352 1.37158 25.1234 1.44287 25.1137 1.51904C25.1049 1.59521 25.0976 1.6748 25.0917 1.75781C25.0868 1.84082 25.0844 1.92334 25.0844 2.00537ZM26.5902 2.83887C26.6107 2.86719 26.6371 2.89014 26.6693 2.90771C26.7015 2.92432 26.7411 2.93262 26.7879 2.93262C26.8358 2.93262 26.8792 2.92139 26.9183 2.89893C26.9574 2.87549 26.993 2.84521 27.0252 2.80811C27.0575 2.771 27.0863 2.72949 27.1117 2.68359C27.1371 2.6377 27.16 2.5918 27.1805 2.5459C27.1854 2.53516 27.1922 2.52734 27.201 2.52246C27.2098 2.5166 27.2196 2.51367 27.2303 2.51367C27.2469 2.51367 27.2601 2.51953 27.2699 2.53125C27.2806 2.54297 27.286 2.55566 27.286 2.56934C27.286 2.57422 27.2855 2.57861 27.2845 2.58252C27.2835 2.58545 27.2821 2.58887 27.2801 2.59277C27.2127 2.74121 27.139 2.85303 27.0589 2.92822C26.9798 3.00342 26.89 3.04199 26.7894 3.04395C26.7249 3.04395 26.6693 3.03125 26.6224 3.00586C26.5755 2.98145 26.537 2.94971 26.5067 2.91064C26.4764 2.87061 26.454 2.82568 26.4393 2.77588C26.4247 2.72607 26.4173 2.67627 26.4173 2.62646C26.4173 2.57666 26.4232 2.53076 26.4349 2.48877C26.4476 2.44678 26.4652 2.41016 26.4876 2.37891C26.5111 2.34766 26.5384 2.32324 26.5697 2.30566C26.6019 2.28809 26.6371 2.2793 26.6751 2.2793C26.6976 2.2793 26.7196 2.28418 26.7411 2.29395C26.7635 2.30273 26.7835 2.31592 26.8011 2.3335C26.8187 2.3501 26.8329 2.37061 26.8436 2.39502C26.8543 2.41943 26.8597 2.44727 26.8597 2.47852C26.8597 2.51855 26.8529 2.55615 26.8392 2.59131C26.8255 2.62646 26.8065 2.65918 26.7821 2.68945C26.7586 2.71973 26.7303 2.74756 26.6971 2.77295C26.6639 2.79834 26.6283 2.82031 26.5902 2.83887ZM26.5462 2.74365C26.5765 2.73096 26.6039 2.71484 26.6283 2.69531C26.6537 2.67578 26.6751 2.6543 26.6927 2.63086C26.7103 2.60742 26.724 2.58301 26.7337 2.55762C26.7435 2.53125 26.7484 2.50488 26.7484 2.47852C26.7484 2.44922 26.7411 2.42725 26.7264 2.4126C26.7118 2.39697 26.6947 2.38916 26.6751 2.38916C26.6488 2.38916 26.6263 2.39648 26.6078 2.41113C26.5892 2.42578 26.5741 2.44482 26.5623 2.46826C26.5506 2.4917 26.5418 2.51807 26.536 2.54736C26.5311 2.57568 26.5287 2.604 26.5287 2.63232C26.5287 2.6499 26.5301 2.66846 26.5331 2.68799C26.537 2.70752 26.5414 2.72607 26.5462 2.74365ZM28.115 1.8501C28.115 1.88721 28.1018 1.91895 28.0755 1.94531C28.0501 1.9707 28.0188 1.9834 27.9817 1.9834C27.9446 1.9834 27.9129 1.9707 27.8865 1.94531C27.8611 1.91895 27.8484 1.88721 27.8484 1.8501C27.8484 1.83154 27.8518 1.81445 27.8587 1.79883C27.8655 1.78223 27.8748 1.76807 27.8865 1.75635C27.8992 1.74365 27.9134 1.73389 27.929 1.72705C27.9456 1.72021 27.9632 1.7168 27.9817 1.7168C28.0003 1.7168 28.0174 1.72021 28.033 1.72705C28.0496 1.73389 28.0638 1.74365 28.0755 1.75635C28.0882 1.76807 28.0979 1.78223 28.1048 1.79883C28.1116 1.81445 28.115 1.83154 28.115 1.8501ZM27.8777 2.7085C27.8777 2.56787 27.8865 2.42773 27.9041 2.28809C27.906 2.27441 27.9119 2.2627 27.9217 2.25293C27.9324 2.24219 27.9461 2.23682 27.9627 2.23682C27.9773 2.23682 27.9895 2.24268 27.9993 2.25439C28.0091 2.26514 28.014 2.27783 28.014 2.29248C28.014 2.29834 28.0125 2.31592 28.0096 2.34521C28.0076 2.37451 28.0047 2.40967 28.0008 2.45068C27.9978 2.49072 27.9949 2.53369 27.992 2.57959C27.99 2.62451 27.9891 2.66602 27.9891 2.7041C27.9891 2.75586 27.9939 2.79785 28.0037 2.83008C28.0144 2.86133 28.0276 2.88574 28.0433 2.90332C28.0599 2.9209 28.0769 2.93262 28.0945 2.93848C28.1131 2.94434 28.1307 2.94727 28.1473 2.94727C28.1746 2.94727 28.2029 2.9375 28.2322 2.91797C28.2615 2.89844 28.2913 2.87109 28.3216 2.83594C28.3528 2.80078 28.3841 2.75879 28.4153 2.70996C28.4466 2.66016 28.4773 2.60498 28.5076 2.54443C28.5125 2.53467 28.5193 2.52734 28.5281 2.52246C28.5369 2.5166 28.5467 2.51367 28.5574 2.51367C28.573 2.51367 28.5857 2.51953 28.5955 2.53125C28.6062 2.54297 28.6116 2.55566 28.6116 2.56934C28.6116 2.5791 28.6097 2.5874 28.6058 2.59424C28.594 2.6167 28.5794 2.64404 28.5618 2.67627C28.5442 2.7085 28.5242 2.7417 28.5018 2.77588C28.4793 2.81006 28.4544 2.84424 28.427 2.87842C28.4007 2.91162 28.3724 2.94189 28.3421 2.96924C28.3118 2.99561 28.2801 3.01709 28.2469 3.03369C28.2137 3.05029 28.18 3.05859 28.1458 3.05859C28.1018 3.05859 28.0633 3.04932 28.0301 3.03076C27.9969 3.01221 27.9685 2.9873 27.9451 2.95605C27.9226 2.9248 27.9056 2.88818 27.8938 2.84619C27.8831 2.80322 27.8777 2.75732 27.8777 2.7085ZM28.033 1.8501C28.033 1.83643 28.0276 1.82471 28.0169 1.81494C28.0071 1.8042 27.9954 1.79883 27.9817 1.79883C27.9681 1.79883 27.9563 1.8042 27.9466 1.81494C27.9368 1.82471 27.9319 1.83643 27.9319 1.8501C27.9319 1.86377 27.9368 1.87549 27.9466 1.88525C27.9563 1.89502 27.9681 1.8999 27.9817 1.8999C27.9954 1.8999 28.0071 1.89502 28.0169 1.88525C28.0276 1.87549 28.033 1.86377 28.033 1.8501ZM29.3542 2.39795C29.3503 2.42432 29.3455 2.44922 29.3396 2.47266C29.3337 2.49512 29.3279 2.51514 29.322 2.53271C29.3171 2.54932 29.3127 2.56299 29.3088 2.57373C29.3049 2.58447 29.3025 2.59033 29.3015 2.59131C29.2917 2.61377 29.2747 2.625 29.2502 2.625C29.2366 2.625 29.2239 2.62012 29.2122 2.61035C29.2004 2.59961 29.1946 2.58643 29.1946 2.5708C29.1946 2.56494 29.1955 2.56055 29.1975 2.55762C29.1995 2.55469 29.2024 2.54883 29.2063 2.54004C29.2102 2.53125 29.2151 2.5166 29.2209 2.49609C29.2268 2.47559 29.2341 2.44385 29.2429 2.40088C29.2263 2.40088 29.2092 2.40039 29.1916 2.39941C29.1741 2.39844 29.158 2.39502 29.1433 2.38916C29.1277 2.3833 29.115 2.37402 29.1052 2.36133C29.0955 2.34863 29.0906 2.33105 29.0906 2.30859C29.0906 2.29199 29.0955 2.26953 29.1052 2.24121C29.114 2.21289 29.1262 2.18506 29.1418 2.15771C29.1575 2.13037 29.175 2.10693 29.1946 2.0874C29.2141 2.06689 29.2336 2.05664 29.2532 2.05664C29.2756 2.05664 29.2937 2.06494 29.3074 2.08154C29.322 2.09814 29.3332 2.11865 29.3411 2.14307C29.3489 2.1665 29.3542 2.19141 29.3572 2.21777C29.3611 2.24414 29.363 2.26709 29.363 2.28662C29.3796 2.28662 29.3957 2.28662 29.4114 2.28662C29.428 2.28564 29.4436 2.28516 29.4582 2.28516C29.5139 2.28516 29.5564 2.29736 29.5857 2.32178C29.615 2.34619 29.6296 2.38623 29.6296 2.44189C29.6296 2.46436 29.6282 2.48779 29.6252 2.51221C29.6223 2.53662 29.6189 2.56201 29.615 2.58838C29.6111 2.61377 29.6077 2.63916 29.6047 2.66455C29.6018 2.68994 29.6003 2.71484 29.6003 2.73926C29.6003 2.77441 29.6052 2.80371 29.615 2.82715C29.6247 2.84961 29.637 2.86768 29.6516 2.88135C29.6663 2.89502 29.6819 2.90479 29.6985 2.91064C29.7151 2.91553 29.7302 2.91797 29.7439 2.91797C29.7859 2.91797 29.8254 2.9043 29.8625 2.87695C29.8997 2.84961 29.9338 2.81689 29.9651 2.77881C29.9963 2.73975 30.0242 2.69873 30.0486 2.65576C30.074 2.61279 30.095 2.5752 30.1116 2.54297C30.1164 2.53418 30.1233 2.52734 30.1321 2.52246C30.1409 2.51758 30.1501 2.51514 30.1599 2.51514C30.1775 2.51514 30.1912 2.521 30.2009 2.53271C30.2107 2.54346 30.2156 2.55566 30.2156 2.56934C30.2156 2.5791 30.2136 2.58789 30.2097 2.5957C30.1872 2.63574 30.1609 2.68115 30.1306 2.73193C30.1013 2.78174 30.0676 2.82861 30.0295 2.87256C29.9914 2.9165 29.9485 2.95361 29.9006 2.98389C29.8538 3.01416 29.802 3.0293 29.7454 3.0293C29.7102 3.0293 29.677 3.02246 29.6457 3.00879C29.6145 2.99609 29.5872 2.97754 29.5637 2.95312C29.5413 2.92773 29.5232 2.89697 29.5095 2.86084C29.4958 2.82373 29.489 2.78223 29.489 2.73633C29.489 2.6875 29.4939 2.63916 29.5037 2.59131C29.5134 2.54248 29.5183 2.49609 29.5183 2.45215C29.5183 2.43359 29.5139 2.41992 29.5051 2.41113C29.4973 2.40137 29.4792 2.39648 29.4509 2.39648C29.4372 2.39648 29.4221 2.39648 29.4055 2.39648C29.3899 2.39648 29.3728 2.39697 29.3542 2.39795ZM29.2561 2.28955C29.2561 2.28271 29.2556 2.27393 29.2546 2.26318C29.2546 2.25146 29.2537 2.24023 29.2517 2.22949C29.2507 2.21875 29.2488 2.20947 29.2458 2.20166C29.2439 2.19385 29.2414 2.18994 29.2385 2.18994C29.2356 2.18994 29.2317 2.19385 29.2268 2.20166C29.2229 2.2085 29.2185 2.21729 29.2136 2.22803C29.2087 2.23779 29.2043 2.24854 29.2004 2.26025C29.1965 2.27197 29.1936 2.28174 29.1916 2.28955H29.2561ZM30.9816 2.83887C31.0021 2.86719 31.0285 2.89014 31.0607 2.90771C31.093 2.92432 31.1325 2.93262 31.1794 2.93262C31.2272 2.93262 31.2707 2.92139 31.3098 2.89893C31.3488 2.87549 31.3845 2.84521 31.4167 2.80811C31.4489 2.771 31.4777 2.72949 31.5031 2.68359C31.5285 2.6377 31.5515 2.5918 31.572 2.5459C31.5768 2.53516 31.5837 2.52734 31.5925 2.52246C31.6013 2.5166 31.611 2.51367 31.6218 2.51367C31.6384 2.51367 31.6516 2.51953 31.6613 2.53125C31.6721 2.54297 31.6774 2.55566 31.6774 2.56934C31.6774 2.57422 31.6769 2.57861 31.676 2.58252C31.675 2.58545 31.6735 2.58887 31.6716 2.59277C31.6042 2.74121 31.5305 2.85303 31.4504 2.92822C31.3713 3.00342 31.2814 3.04199 31.1808 3.04395C31.1164 3.04395 31.0607 3.03125 31.0139 3.00586C30.967 2.98145 30.9284 2.94971 30.8981 2.91064C30.8679 2.87061 30.8454 2.82568 30.8308 2.77588C30.8161 2.72607 30.8088 2.67627 30.8088 2.62646C30.8088 2.57666 30.8146 2.53076 30.8264 2.48877C30.8391 2.44678 30.8566 2.41016 30.8791 2.37891C30.9025 2.34766 30.9299 2.32324 30.9611 2.30566C30.9933 2.28809 31.0285 2.2793 31.0666 2.2793C31.0891 2.2793 31.111 2.28418 31.1325 2.29395C31.155 2.30273 31.175 2.31592 31.1926 2.3335C31.2101 2.3501 31.2243 2.37061 31.235 2.39502C31.2458 2.41943 31.2512 2.44727 31.2512 2.47852C31.2512 2.51855 31.2443 2.55615 31.2307 2.59131C31.217 2.62646 31.1979 2.65918 31.1735 2.68945C31.1501 2.71973 31.1218 2.74756 31.0886 2.77295C31.0554 2.79834 31.0197 2.82031 30.9816 2.83887ZM30.9377 2.74365C30.968 2.73096 30.9953 2.71484 31.0197 2.69531C31.0451 2.67578 31.0666 2.6543 31.0842 2.63086C31.1017 2.60742 31.1154 2.58301 31.1252 2.55762C31.135 2.53125 31.1398 2.50488 31.1398 2.47852C31.1398 2.44922 31.1325 2.42725 31.1179 2.4126C31.1032 2.39697 31.0861 2.38916 31.0666 2.38916C31.0402 2.38916 31.0178 2.39648 30.9992 2.41113C30.9807 2.42578 30.9655 2.44482 30.9538 2.46826C30.9421 2.4917 30.9333 2.51807 30.9274 2.54736C30.9225 2.57568 30.9201 2.604 30.9201 2.63232C30.9201 2.6499 30.9216 2.66846 30.9245 2.68799C30.9284 2.70752 30.9328 2.72607 30.9377 2.74365ZM32.5065 1.8501C32.5065 1.88721 32.4933 1.91895 32.4669 1.94531C32.4415 1.9707 32.4103 1.9834 32.3732 1.9834C32.3361 1.9834 32.3043 1.9707 32.278 1.94531C32.2526 1.91895 32.2399 1.88721 32.2399 1.8501C32.2399 1.83154 32.2433 1.81445 32.2501 1.79883C32.257 1.78223 32.2663 1.76807 32.278 1.75635C32.2907 1.74365 32.3048 1.73389 32.3204 1.72705C32.3371 1.72021 32.3546 1.7168 32.3732 1.7168C32.3917 1.7168 32.4088 1.72021 32.4245 1.72705C32.4411 1.73389 32.4552 1.74365 32.4669 1.75635C32.4796 1.76807 32.4894 1.78223 32.4962 1.79883C32.5031 1.81445 32.5065 1.83154 32.5065 1.8501ZM32.2692 2.7085C32.2692 2.56787 32.278 2.42773 32.2955 2.28809C32.2975 2.27441 32.3034 2.2627 32.3131 2.25293C32.3239 2.24219 32.3375 2.23682 32.3541 2.23682C32.3688 2.23682 32.381 2.24268 32.3908 2.25439C32.4005 2.26514 32.4054 2.27783 32.4054 2.29248C32.4054 2.29834 32.4039 2.31592 32.401 2.34521C32.3991 2.37451 32.3961 2.40967 32.3922 2.45068C32.3893 2.49072 32.3864 2.53369 32.3834 2.57959C32.3815 2.62451 32.3805 2.66602 32.3805 2.7041C32.3805 2.75586 32.3854 2.79785 32.3952 2.83008C32.4059 2.86133 32.4191 2.88574 32.4347 2.90332C32.4513 2.9209 32.4684 2.93262 32.486 2.93848C32.5045 2.94434 32.5221 2.94727 32.5387 2.94727C32.5661 2.94727 32.5944 2.9375 32.6237 2.91797C32.653 2.89844 32.6828 2.87109 32.713 2.83594C32.7443 2.80078 32.7755 2.75879 32.8068 2.70996C32.838 2.66016 32.8688 2.60498 32.8991 2.54443C32.9039 2.53467 32.9108 2.52734 32.9196 2.52246C32.9284 2.5166 32.9381 2.51367 32.9489 2.51367C32.9645 2.51367 32.9772 2.51953 32.987 2.53125C32.9977 2.54297 33.0031 2.55566 33.0031 2.56934C33.0031 2.5791 33.0011 2.5874 32.9972 2.59424C32.9855 2.6167 32.9708 2.64404 32.9533 2.67627C32.9357 2.7085 32.9157 2.7417 32.8932 2.77588C32.8707 2.81006 32.8458 2.84424 32.8185 2.87842C32.7921 2.91162 32.7638 2.94189 32.7335 2.96924C32.7033 2.99561 32.6715 3.01709 32.6383 3.03369C32.6051 3.05029 32.5714 3.05859 32.5372 3.05859C32.4933 3.05859 32.4547 3.04932 32.4215 3.03076C32.3883 3.01221 32.36 2.9873 32.3366 2.95605C32.3141 2.9248 32.297 2.88818 32.2853 2.84619C32.2746 2.80322 32.2692 2.75732 32.2692 2.7085ZM32.4245 1.8501C32.4245 1.83643 32.4191 1.82471 32.4083 1.81494C32.3986 1.8042 32.3869 1.79883 32.3732 1.79883C32.3595 1.79883 32.3478 1.8042 32.338 1.81494C32.3283 1.82471 32.3234 1.83643 32.3234 1.8501C32.3234 1.86377 32.3283 1.87549 32.338 1.88525C32.3478 1.89502 32.3595 1.8999 32.3732 1.8999C32.3869 1.8999 32.3986 1.89502 32.4083 1.88525C32.4191 1.87549 32.4245 1.86377 32.4245 1.8501ZM33.7457 2.39795C33.7418 2.42432 33.7369 2.44922 33.731 2.47266C33.7252 2.49512 33.7193 2.51514 33.7135 2.53271C33.7086 2.54932 33.7042 2.56299 33.7003 2.57373C33.6964 2.58447 33.6939 2.59033 33.693 2.59131C33.6832 2.61377 33.6661 2.625 33.6417 2.625C33.628 2.625 33.6153 2.62012 33.6036 2.61035C33.5919 2.59961 33.586 2.58643 33.586 2.5708C33.586 2.56494 33.587 2.56055 33.589 2.55762C33.5909 2.55469 33.5938 2.54883 33.5977 2.54004C33.6016 2.53125 33.6065 2.5166 33.6124 2.49609C33.6182 2.47559 33.6256 2.44385 33.6344 2.40088C33.6178 2.40088 33.6007 2.40039 33.5831 2.39941C33.5655 2.39844 33.5494 2.39502 33.5348 2.38916C33.5191 2.3833 33.5064 2.37402 33.4967 2.36133C33.4869 2.34863 33.482 2.33105 33.482 2.30859C33.482 2.29199 33.4869 2.26953 33.4967 2.24121C33.5055 2.21289 33.5177 2.18506 33.5333 2.15771C33.5489 2.13037 33.5665 2.10693 33.586 2.0874C33.6056 2.06689 33.6251 2.05664 33.6446 2.05664C33.6671 2.05664 33.6851 2.06494 33.6988 2.08154C33.7135 2.09814 33.7247 2.11865 33.7325 2.14307C33.7403 2.1665 33.7457 2.19141 33.7486 2.21777C33.7525 2.24414 33.7545 2.26709 33.7545 2.28662C33.7711 2.28662 33.7872 2.28662 33.8028 2.28662C33.8194 2.28564 33.835 2.28516 33.8497 2.28516C33.9054 2.28516 33.9478 2.29736 33.9771 2.32178C34.0064 2.34619 34.0211 2.38623 34.0211 2.44189C34.0211 2.46436 34.0196 2.48779 34.0167 2.51221C34.0138 2.53662 34.0103 2.56201 34.0064 2.58838C34.0025 2.61377 33.9991 2.63916 33.9962 2.66455C33.9932 2.68994 33.9918 2.71484 33.9918 2.73926C33.9918 2.77441 33.9967 2.80371 34.0064 2.82715C34.0162 2.84961 34.0284 2.86768 34.0431 2.88135C34.0577 2.89502 34.0733 2.90479 34.0899 2.91064C34.1065 2.91553 34.1217 2.91797 34.1353 2.91797C34.1773 2.91797 34.2169 2.9043 34.254 2.87695C34.2911 2.84961 34.3253 2.81689 34.3565 2.77881C34.3878 2.73975 34.4156 2.69873 34.44 2.65576C34.4654 2.61279 34.4864 2.5752 34.503 2.54297C34.5079 2.53418 34.5147 2.52734 34.5235 2.52246C34.5323 2.51758 34.5416 2.51514 34.5514 2.51514C34.5689 2.51514 34.5826 2.521 34.5924 2.53271C34.6021 2.54346 34.607 2.55566 34.607 2.56934C34.607 2.5791 34.6051 2.58789 34.6012 2.5957C34.5787 2.63574 34.5523 2.68115 34.5221 2.73193C34.4928 2.78174 34.4591 2.82861 34.421 2.87256C34.3829 2.9165 34.3399 2.95361 34.2921 2.98389C34.2452 3.01416 34.1934 3.0293 34.1368 3.0293C34.1016 3.0293 34.0684 3.02246 34.0372 3.00879C34.0059 2.99609 33.9786 2.97754 33.9552 2.95312C33.9327 2.92773 33.9146 2.89697 33.901 2.86084C33.8873 2.82373 33.8805 2.78223 33.8805 2.73633C33.8805 2.6875 33.8853 2.63916 33.8951 2.59131C33.9049 2.54248 33.9098 2.49609 33.9098 2.45215C33.9098 2.43359 33.9054 2.41992 33.8966 2.41113C33.8888 2.40137 33.8707 2.39648 33.8424 2.39648C33.8287 2.39648 33.8136 2.39648 33.797 2.39648C33.7813 2.39648 33.7642 2.39697 33.7457 2.39795ZM33.6475 2.28955C33.6475 2.28271 33.6471 2.27393 33.6461 2.26318C33.6461 2.25146 33.6451 2.24023 33.6432 2.22949C33.6422 2.21875 33.6402 2.20947 33.6373 2.20166C33.6353 2.19385 33.6329 2.18994 33.63 2.18994C33.627 2.18994 33.6231 2.19385 33.6182 2.20166C33.6143 2.2085 33.6099 2.21729 33.6051 2.22803C33.6002 2.23779 33.5958 2.24854 33.5919 2.26025C33.588 2.27197 33.585 2.28174 33.5831 2.28955H33.6475ZM35.8726 2.83887C35.8482 2.83887 35.8267 2.83691 35.8081 2.83301C35.7935 2.8623 35.7759 2.88965 35.7554 2.91504C35.7349 2.93945 35.711 2.96094 35.6836 2.97949C35.6573 2.99805 35.6275 3.0127 35.5943 3.02344C35.5611 3.03418 35.5249 3.03955 35.4859 3.03955C35.44 3.03955 35.398 3.03125 35.3599 3.01465C35.3218 2.99902 35.2886 2.97705 35.2603 2.94873C35.232 2.91943 35.21 2.88477 35.1944 2.84473C35.1787 2.80371 35.1709 2.75879 35.1709 2.70996C35.1709 2.64746 35.1822 2.59326 35.2046 2.54736C35.2271 2.50049 35.253 2.46191 35.2823 2.43164C35.3116 2.40039 35.3409 2.37744 35.3702 2.36279C35.3995 2.34717 35.4214 2.33936 35.4361 2.33936C35.4527 2.33936 35.4649 2.34375 35.4727 2.35254C35.4815 2.36133 35.4859 2.37305 35.4859 2.3877C35.4859 2.4043 35.4805 2.41699 35.4698 2.42578C35.46 2.43359 35.4473 2.44141 35.4317 2.44922C35.4161 2.45703 35.3995 2.46826 35.3819 2.48291C35.3643 2.49658 35.3477 2.51416 35.3321 2.53564C35.3174 2.55713 35.3052 2.58252 35.2954 2.61182C35.2857 2.64111 35.2808 2.67383 35.2808 2.70996C35.2808 2.74219 35.2857 2.77246 35.2954 2.80078C35.3052 2.82812 35.3194 2.85205 35.3379 2.87256C35.3565 2.89209 35.3785 2.90771 35.4038 2.91943C35.4292 2.93018 35.4576 2.93555 35.4888 2.93555C35.5445 2.93555 35.5904 2.92285 35.6265 2.89746C35.6636 2.87109 35.6919 2.83789 35.7115 2.79785C35.6538 2.76758 35.6065 2.72461 35.5694 2.66895C35.5323 2.61328 35.5137 2.55078 35.5137 2.48145C35.5137 2.42578 35.5269 2.38037 35.5533 2.34521C35.5806 2.31006 35.6162 2.29248 35.6602 2.29248C35.6866 2.29248 35.7115 2.29883 35.7349 2.31152C35.7583 2.32422 35.7788 2.34424 35.7964 2.37158C35.815 2.39893 35.8296 2.43408 35.8404 2.47705C35.8511 2.52002 35.8565 2.57129 35.8565 2.63086C35.8565 2.66211 35.8526 2.69482 35.8448 2.729C35.8506 2.72998 35.8565 2.73047 35.8623 2.73047C35.8682 2.73047 35.8745 2.73047 35.8814 2.73047C35.9146 2.73047 35.9444 2.72656 35.9707 2.71875C35.9971 2.71094 36.021 2.69922 36.0425 2.68359C36.064 2.66797 36.083 2.64795 36.0996 2.62354C36.1172 2.59912 36.1338 2.5708 36.1495 2.53857C36.1524 2.53271 36.1587 2.52734 36.1685 2.52246C36.1783 2.5166 36.188 2.51367 36.1978 2.51367C36.2105 2.51367 36.2222 2.51904 36.2329 2.52979C36.2447 2.53955 36.2505 2.55273 36.2505 2.56934C36.2505 2.57715 36.2486 2.58594 36.2447 2.5957C36.2408 2.60449 36.2369 2.61279 36.2329 2.62061C36.2163 2.6499 36.1968 2.67822 36.1744 2.70557C36.1529 2.73193 36.127 2.75537 36.0967 2.77588C36.0674 2.79541 36.0342 2.81104 35.9971 2.82275C35.96 2.83447 35.9185 2.83984 35.8726 2.83887ZM35.6221 2.46973C35.6221 2.48828 35.6245 2.50781 35.6294 2.52832C35.6343 2.54883 35.6416 2.56934 35.6514 2.58984C35.6621 2.60938 35.6748 2.62842 35.6895 2.64697C35.7051 2.66455 35.7232 2.67969 35.7437 2.69238C35.7466 2.67188 35.7481 2.65186 35.7481 2.63232C35.7481 2.60596 35.7461 2.5791 35.7422 2.55176C35.7383 2.52441 35.7325 2.49951 35.7246 2.47705C35.7178 2.45361 35.709 2.43506 35.6983 2.42139C35.6875 2.40674 35.6748 2.39941 35.6602 2.39941C35.6543 2.39941 35.6465 2.40381 35.6368 2.4126C35.627 2.42139 35.6221 2.44043 35.6221 2.46973ZM37.0034 2.45801C36.9975 2.47363 36.9902 2.49121 36.9814 2.51074C36.9736 2.53027 36.9643 2.55078 36.9536 2.57227C36.9448 2.58887 36.9355 2.60205 36.9258 2.61182C36.917 2.62061 36.9053 2.625 36.8906 2.625C36.874 2.625 36.8608 2.62012 36.8511 2.61035C36.8413 2.59961 36.8364 2.5874 36.8364 2.57373C36.8364 2.56885 36.8369 2.56494 36.8379 2.56201C36.8389 2.55811 36.8413 2.55225 36.8452 2.54443C36.8706 2.49561 36.8891 2.45312 36.9009 2.41699C36.9136 2.37988 36.9238 2.34131 36.9316 2.30127C36.9248 2.27881 36.9199 2.25977 36.917 2.24414C36.914 2.22852 36.9126 2.2124 36.9126 2.1958C36.9126 2.16357 36.9194 2.1377 36.9331 2.11816C36.9468 2.09766 36.9658 2.0874 36.9902 2.0874C37.0127 2.0874 37.0303 2.09717 37.043 2.1167C37.0566 2.13623 37.0635 2.16016 37.0635 2.18848C37.0635 2.2041 37.062 2.21973 37.0591 2.23535C37.0561 2.25098 37.0522 2.27051 37.0473 2.29395C37.0698 2.34961 37.0923 2.39893 37.1147 2.44189C37.1372 2.48486 37.1572 2.52441 37.1748 2.56055C37.1924 2.5957 37.2065 2.62891 37.2173 2.66016C37.229 2.69141 37.2348 2.72266 37.2348 2.75391C37.2348 2.79492 37.2265 2.83398 37.2099 2.87109C37.1933 2.9082 37.166 2.93945 37.1279 2.96484C37.1328 2.96582 37.1377 2.96631 37.1426 2.96631C37.1474 2.96631 37.1523 2.96631 37.1572 2.96631C37.2129 2.96631 37.2641 2.95361 37.311 2.92822C37.3579 2.90283 37.3999 2.87012 37.437 2.83008C37.4751 2.78906 37.5088 2.74414 37.5381 2.69531C37.5674 2.64551 37.5928 2.59619 37.6142 2.54736C37.624 2.5249 37.6377 2.51367 37.6553 2.51367C37.6719 2.51367 37.6846 2.51953 37.6933 2.53125C37.7031 2.54297 37.708 2.55566 37.708 2.56934C37.708 2.57715 37.7065 2.58447 37.7036 2.59131C37.6929 2.61768 37.6787 2.64795 37.6611 2.68213C37.6445 2.71533 37.624 2.75 37.5996 2.78613C37.5762 2.82129 37.5488 2.85596 37.5176 2.89014C37.4863 2.92432 37.4512 2.95508 37.4121 2.98242C37.374 3.00879 37.332 3.02979 37.2861 3.04541C37.2402 3.06201 37.1899 3.07031 37.1352 3.07031C37.0698 3.07031 37.0088 3.05859 36.9521 3.03516C36.8965 3.0127 36.8511 2.9751 36.8159 2.92236C36.81 2.91357 36.8071 2.9043 36.8071 2.89453C36.8071 2.87988 36.8125 2.86719 36.8232 2.85645C36.8349 2.84473 36.8481 2.83887 36.8628 2.83887C36.8784 2.83887 36.8916 2.84424 36.9023 2.85498C36.9033 2.85693 36.9067 2.86035 36.9126 2.86523C36.9184 2.86914 36.9253 2.87402 36.9331 2.87988C36.9419 2.88477 36.9516 2.88916 36.9624 2.89307C36.9741 2.89697 36.9858 2.89893 36.9975 2.89893C37.021 2.89893 37.0405 2.89404 37.0561 2.88428C37.0727 2.87451 37.0859 2.86279 37.0957 2.84912C37.1055 2.83447 37.1123 2.81934 37.1162 2.80371C37.1211 2.78711 37.1235 2.77295 37.1235 2.76123C37.1235 2.73682 37.1196 2.7124 37.1118 2.68799C37.104 2.66357 37.0937 2.63916 37.081 2.61475C37.0693 2.59033 37.0561 2.56543 37.0415 2.54004C37.0278 2.51367 37.0151 2.48633 37.0034 2.45801Z" fill="black"/>
<path d="M1.25978 8.056C0.926447 8.056 0.667781 7.91867 0.483781 7.644V7.428C0.555781 7.588 0.659781 7.71333 0.795781 7.804C0.934447 7.89467 1.09978 7.94 1.29178 7.94C1.42511 7.94 1.54778 7.91067 1.65978 7.852C1.77445 7.79333 1.86511 7.71067 1.93178 7.604C1.99845 7.49733 2.03178 7.37467 2.03178 7.236C2.03178 7.11067 2.01045 7.00267 1.96778 6.912C1.92511 6.82133 1.85445 6.73467 1.75578 6.652C1.65711 6.56667 1.51445 6.46667 1.32778 6.352L1.19978 6.272C1.08245 6.2 0.987781 6.136 0.915781 6.08C0.843781 6.024 0.781114 5.95867 0.727781 5.884C0.658447 5.78 0.623781 5.66 0.623781 5.524C0.623781 5.34267 0.682447 5.20133 0.799781 5.1C0.917114 4.99867 1.06645 4.948 1.24778 4.948C1.49311 4.948 1.68778 5.03867 1.83178 5.22V5.424C1.77045 5.312 1.68645 5.224 1.57978 5.16C1.47311 5.096 1.35578 5.064 1.22778 5.064C1.09445 5.064 0.982447 5.10533 0.891781 5.188C0.801114 5.27067 0.755781 5.38133 0.755781 5.52C0.755781 5.656 0.797114 5.77333 0.879781 5.872C0.965114 5.968 1.10778 6.07333 1.30778 6.188C1.55311 6.332 1.74378 6.46267 1.87978 6.58C1.97578 6.668 2.04511 6.76533 2.08778 6.872C2.13311 6.97867 2.15578 7.09733 2.15578 7.228C2.15578 7.39333 2.11711 7.53867 2.03978 7.664C1.96245 7.78933 1.85578 7.88667 1.71978 7.956C1.58378 8.02267 1.43045 8.056 1.25978 8.056ZM6.14188 8H6.00188L5.43388 6.856H3.84188L3.28588 8H3.14588L4.64188 4.928L6.14188 8ZM5.38588 6.74L4.63388 5.216L3.89788 6.74H5.38588ZM7.28207 5H7.41407V7.884H8.34207V8H7.28207V5ZM12.2453 8H12.1053L11.5373 6.856H9.94529L9.38929 8H9.24929L10.7453 4.928L12.2453 8ZM11.4893 6.74L10.7373 5.216L10.0013 6.74H11.4893ZM10.2173 4.7C10.2173 4.596 10.2453 4.51467 10.3013 4.456C10.3573 4.39733 10.428 4.368 10.5133 4.368C10.572 4.368 10.62 4.37867 10.6573 4.4C10.6973 4.41867 10.7413 4.448 10.7893 4.488C10.824 4.51733 10.8533 4.54 10.8773 4.556C10.904 4.56933 10.9333 4.576 10.9653 4.576C11.0613 4.576 11.1093 4.512 11.1093 4.384H11.2373C11.2373 4.488 11.2133 4.56533 11.1653 4.616C11.1173 4.664 11.0493 4.688 10.9613 4.688C10.9106 4.688 10.868 4.67867 10.8333 4.66C10.7986 4.64133 10.7573 4.612 10.7093 4.572C10.672 4.54 10.64 4.51733 10.6133 4.504C10.5893 4.488 10.56 4.48 10.5253 4.48C10.4693 4.48 10.4253 4.50133 10.3933 4.544C10.3613 4.584 10.3453 4.636 10.3453 4.7H10.2173ZM14.5362 8.08C14.2562 8.08 13.9962 8.00667 13.7562 7.86C13.5162 7.71333 13.3256 7.51867 13.1842 7.276C13.0456 7.03067 12.9762 6.768 12.9762 6.488C12.9762 6.21067 13.0469 5.952 13.1882 5.712C13.3296 5.46933 13.5202 5.27733 13.7602 5.136C14.0002 4.992 14.2602 4.92 14.5402 4.92C14.8229 4.92 15.0829 4.99067 15.3202 5.132C15.5576 5.27333 15.7456 5.46533 15.8842 5.708C16.0256 5.948 16.0962 6.208 16.0962 6.488C16.0962 6.776 16.0256 7.04267 15.8842 7.288C15.7456 7.53067 15.5562 7.724 15.3162 7.868C15.0789 8.00933 14.8189 8.08 14.5362 8.08ZM14.5362 7.964C14.7922 7.964 15.0296 7.89867 15.2482 7.768C15.4669 7.63467 15.6402 7.456 15.7682 7.232C15.8989 7.00533 15.9642 6.76 15.9642 6.496C15.9642 6.23467 15.9002 5.992 15.7722 5.768C15.6442 5.544 15.4709 5.36667 15.2522 5.236C15.0336 5.10267 14.7962 5.036 14.5402 5.036C14.2816 5.036 14.0429 5.10267 13.8242 5.236C13.6056 5.36667 13.4309 5.544 13.3002 5.768C13.1722 5.992 13.1082 6.23467 13.1082 6.496C13.1082 6.76 13.1722 7.00533 13.3002 7.232C13.4309 7.456 13.6056 7.63467 13.8242 7.768C14.0429 7.89867 14.2802 7.964 14.5362 7.964ZM18.8678 5H18.9958C19.4731 5 19.8411 5.13067 20.0998 5.392C20.3611 5.65067 20.4918 6.02 20.4918 6.5C20.4918 6.77467 20.4251 7.02667 20.2918 7.256C20.1585 7.48533 19.9771 7.66667 19.7478 7.8C19.5211 7.93333 19.2705 8 18.9958 8H18.8678V5ZM19.0278 7.876C19.2731 7.876 19.4971 7.816 19.6998 7.696C19.9025 7.57333 20.0625 7.40667 20.1798 7.196C20.2998 6.98533 20.3598 6.75333 20.3598 6.5C20.3598 6.05733 20.2438 5.71733 20.0118 5.48C19.7825 5.24 19.4545 5.12 19.0278 5.12H18.9958V7.876H19.0278ZM21.7301 5H22.8061V5.116H21.8621V6.748H22.6501V6.864H21.8621V7.884H22.8061V8H21.7301V5ZM25.4936 5H25.6216C25.8323 5 25.987 5.04933 26.0856 5.148C26.1843 5.244 26.2336 5.38667 26.2336 5.576C26.2336 5.68533 26.2016 5.79067 26.1376 5.892C26.0736 5.99067 25.9963 6.05733 25.9056 6.092C26.135 6.12933 26.3123 6.22533 26.4376 6.38C26.563 6.53467 26.6256 6.73733 26.6256 6.988C26.6256 7.188 26.5816 7.36533 26.4936 7.52C26.4056 7.672 26.2843 7.79067 26.1296 7.876C25.9776 7.95867 25.8083 8 25.6216 8H25.4936V5ZM25.6536 6.056C25.7816 6.056 25.8896 6.00933 25.9776 5.916C26.0656 5.82267 26.1096 5.708 26.1096 5.572C26.1096 5.42 26.0723 5.30533 25.9976 5.228C25.9256 5.15067 25.811 5.112 25.6536 5.112H25.6216V6.056H25.6536ZM25.6536 7.888C25.811 7.888 25.9536 7.85067 26.0816 7.776C26.2096 7.69867 26.311 7.592 26.3856 7.456C26.4603 7.32 26.4976 7.16667 26.4976 6.996C26.4976 6.72133 26.4243 6.51467 26.2776 6.376C26.1336 6.23467 25.9256 6.164 25.6536 6.164H25.6216V7.888H25.6536ZM27.8012 5H28.8772V5.116H27.9332V6.748H28.7212V6.864H27.9332V7.884H28.8772V8H27.8012V5ZM29.9916 5H30.1236V7.884H31.0516V8H29.9916V5ZM32.1468 5H33.2228V5.116H32.2788V6.748H33.0668V6.864H32.2788V7.884H33.2228V8H32.1468V5ZM35.4452 5.116H34.1252V5H35.6452L34.3212 7.884H35.6332V8H34.1252L35.4452 5.116ZM39.5543 8H39.4143L38.8463 6.856H37.2543L36.6983 8H36.5583L38.0543 4.928L39.5543 8ZM38.7983 6.74L38.0463 5.216L37.3103 6.74H38.7983Z" fill="black"/>
<path d="M40 4L0 4" stroke="black" stroke-width="0.1"/>
</svg>
