<svg width="131" height="38" viewBox="0 0 131 38" fill="none" xmlns="http://www.w3.org/2000/svg">
<path d="M15.0806 9.10156C14.8358 9.4974 14.5051 9.89062 14.0884 10.2812C13.6717 10.6667 13.1952 11.0156 12.6587 11.3281C12.1275 11.6354 11.5467 11.8828 10.9165 12.0703C10.2863 12.263 9.63527 12.3594 8.96339 12.3594C8.43735 12.3594 7.91131 12.3125 7.38527 12.2188C6.86444 12.125 6.36183 11.9818 5.87746 11.7891C5.39829 11.5964 4.95037 11.3542 4.53371 11.0625C4.12225 10.7656 3.76287 10.4167 3.45558 10.0156C3.14829 9.61458 2.9061 9.15885 2.72902 8.64844C2.55714 8.13802 2.47121 7.57031 2.47121 6.94531C2.47121 6.33594 2.55975 5.75781 2.73683 5.21094C2.91912 4.66406 3.17173 4.15885 3.49464 3.69531C3.81756 3.22656 4.20037 2.80469 4.64308 2.42969C5.08579 2.05469 5.57016 1.73698 6.09621 1.47656C6.62225 1.21094 7.17694 1.00781 7.76027 0.867188C8.3436 0.726562 8.93996 0.65625 9.54933 0.65625C10.2212 0.65625 10.8514 0.736979 11.44 0.898438C12.0337 1.05469 12.5519 1.27865 12.9946 1.57031C13.4374 1.85677 13.7863 2.20312 14.0415 2.60938C14.3019 3.01042 14.4321 3.45833 14.4321 3.95312C14.4321 4.41146 14.3254 4.84896 14.1118 5.26562C13.8983 5.67708 13.604 6.03906 13.229 6.35156C12.8592 6.66406 12.4243 6.91146 11.9243 7.09375C11.4295 7.27604 10.9009 7.36719 10.3384 7.36719C9.88527 7.36719 9.48423 7.3125 9.13527 7.20312C8.78631 7.08854 8.49464 6.93229 8.26027 6.73438C8.02589 6.53646 7.84881 6.30469 7.72902 6.03906C7.60923 5.77344 7.54933 5.48698 7.54933 5.17969C7.54933 4.92448 7.58839 4.69271 7.66652 4.48438C7.74985 4.27083 7.83839 4.08854 7.93214 3.9375C8.0311 3.78646 8.12225 3.66927 8.20558 3.58594C8.29412 3.4974 8.3436 3.44792 8.35402 3.4375C8.38006 3.41146 8.40871 3.39583 8.43996 3.39062C8.47641 3.38021 8.51027 3.375 8.54152 3.375C8.62485 3.375 8.69516 3.40104 8.75246 3.45312C8.80975 3.50521 8.83839 3.57292 8.83839 3.65625C8.83839 3.75 8.80454 3.82812 8.73683 3.89062C8.72641 3.89583 8.68996 3.93229 8.62746 4C8.56496 4.0625 8.49725 4.15104 8.42433 4.26562C8.35141 4.375 8.28371 4.50781 8.22121 4.66406C8.16391 4.82031 8.13527 4.99219 8.13527 5.17969C8.13527 5.47656 8.20037 5.72656 8.33058 5.92969C8.466 6.13281 8.64048 6.29948 8.85402 6.42969C9.06756 6.55469 9.30454 6.64583 9.56496 6.70312C9.82537 6.75521 10.0858 6.78125 10.3462 6.78125C10.8306 6.78125 11.2837 6.70312 11.7056 6.54688C12.1327 6.39062 12.5051 6.18229 12.8228 5.92188C13.1405 5.66146 13.3905 5.36198 13.5728 5.02344C13.7551 4.6849 13.8462 4.33073 13.8462 3.96094C13.8462 3.55469 13.7316 3.1849 13.5025 2.85156C13.2733 2.51302 12.9634 2.22656 12.5728 1.99219C12.1821 1.7526 11.7238 1.56771 11.1978 1.4375C10.6769 1.30729 10.1196 1.24219 9.52589 1.24219C9.07798 1.24219 8.60662 1.29688 8.11183 1.40625C7.62225 1.51042 7.13787 1.66927 6.65871 1.88281C6.17954 2.09635 5.72121 2.36198 5.28371 2.67969C4.85141 2.9974 4.47121 3.36979 4.14308 3.79688C3.81496 4.21875 3.55194 4.69271 3.35402 5.21875C3.16131 5.74479 3.06496 6.32031 3.06496 6.94531C3.06496 7.51302 3.14308 8.02604 3.29933 8.48438C3.46079 8.94271 3.68214 9.35156 3.96339 9.71094C4.24464 10.0651 4.57277 10.3724 4.94777 10.6328C5.32798 10.8932 5.73423 11.1094 6.16652 11.2812C6.60402 11.4479 7.05975 11.5729 7.53371 11.6562C8.00766 11.7344 8.47902 11.7734 8.94777 11.7734C9.57277 11.7734 10.1743 11.6875 10.7525 11.5156C11.3306 11.3385 11.8644 11.1094 12.354 10.8281C12.8488 10.5417 13.2863 10.2214 13.6665 9.86719C14.0467 9.51302 14.3488 9.15625 14.5728 8.79688C14.5988 8.75 14.6353 8.71615 14.6821 8.69531C14.729 8.66927 14.7785 8.65625 14.8306 8.65625C14.9191 8.65625 14.9894 8.6875 15.0415 8.75C15.0936 8.80729 15.1196 8.8724 15.1196 8.94531C15.1196 8.97135 15.117 8.9974 15.1118 9.02344C15.1066 9.04948 15.0962 9.07552 15.0806 9.10156ZM17.5249 11.1406C17.6342 11.2917 17.7749 11.4141 17.9467 11.5078C18.1186 11.5964 18.3296 11.6406 18.5796 11.6406C18.8348 11.6406 19.0665 11.5807 19.2749 11.4609C19.4832 11.3359 19.6733 11.1745 19.8452 10.9766C20.0171 10.7786 20.1707 10.5573 20.3061 10.3125C20.4415 10.0677 20.5639 9.82292 20.6733 9.57812C20.6993 9.52083 20.7358 9.47917 20.7827 9.45312C20.8296 9.42188 20.8816 9.40625 20.9389 9.40625C21.0275 9.40625 21.0978 9.4375 21.1499 9.5C21.2072 9.5625 21.2358 9.63021 21.2358 9.70312C21.2358 9.72917 21.2332 9.7526 21.228 9.77344C21.2228 9.78906 21.215 9.80729 21.2046 9.82812C20.8452 10.6198 20.452 11.2161 20.0249 11.6172C19.603 12.0182 19.1238 12.224 18.5874 12.2344C18.2436 12.2344 17.9467 12.1667 17.6967 12.0312C17.4467 11.901 17.241 11.7318 17.0796 11.5234C16.9181 11.3099 16.7983 11.0703 16.7202 10.8047C16.6421 10.5391 16.603 10.2734 16.603 10.0078C16.603 9.74219 16.6342 9.4974 16.6967 9.27344C16.7645 9.04948 16.8582 8.85417 16.978 8.6875C17.103 8.52083 17.2488 8.39062 17.4155 8.29688C17.5874 8.20312 17.7749 8.15625 17.978 8.15625C18.0978 8.15625 18.215 8.18229 18.3296 8.23438C18.4493 8.28125 18.5561 8.35156 18.6499 8.44531C18.7436 8.53385 18.8191 8.64323 18.8764 8.77344C18.9337 8.90365 18.9624 9.05208 18.9624 9.21875C18.9624 9.43229 18.9259 9.63281 18.853 9.82031C18.7801 10.0078 18.6785 10.1823 18.5483 10.3438C18.4233 10.5052 18.2723 10.6536 18.0952 10.7891C17.9181 10.9245 17.728 11.0417 17.5249 11.1406ZM17.2905 10.6328C17.452 10.5651 17.5978 10.4792 17.728 10.375C17.8634 10.2708 17.978 10.1562 18.0717 10.0312C18.1655 9.90625 18.2384 9.77604 18.2905 9.64062C18.3426 9.5 18.3686 9.35938 18.3686 9.21875C18.3686 9.0625 18.3296 8.94531 18.2514 8.86719C18.1733 8.78385 18.0822 8.74219 17.978 8.74219C17.8374 8.74219 17.7176 8.78125 17.6186 8.85938C17.5197 8.9375 17.4389 9.03906 17.3764 9.16406C17.3139 9.28906 17.2671 9.42969 17.2358 9.58594C17.2098 9.73698 17.1967 9.88802 17.1967 10.0391C17.1967 10.1328 17.2046 10.2318 17.2202 10.3359C17.241 10.4401 17.2645 10.5391 17.2905 10.6328ZM17.5874 6.94531L18.8374 5.75781C18.8895 5.71094 18.9493 5.6875 19.0171 5.6875C19.0848 5.6875 19.1447 5.71354 19.1967 5.76562C19.2488 5.81771 19.2749 5.88021 19.2749 5.95312C19.2749 6.02604 19.2488 6.08594 19.1967 6.13281L17.9467 7.32031C17.8895 7.36719 17.8296 7.39062 17.7671 7.39062C17.6941 7.39062 17.6316 7.36458 17.5796 7.3125C17.5327 7.26042 17.5092 7.20052 17.5092 7.13281C17.5092 7.0599 17.5353 6.9974 17.5874 6.94531ZM25.8207 9.83594C25.7634 9.95573 25.6905 10.099 25.602 10.2656C25.5186 10.4271 25.4223 10.5964 25.3129 10.7734C25.2035 10.9505 25.0811 11.1276 24.9457 11.3047C24.8103 11.4766 24.6619 11.6328 24.5004 11.7734C24.3442 11.9089 24.1749 12.0182 23.9926 12.1016C23.8155 12.1901 23.6254 12.2344 23.4223 12.2344C23.1098 12.2344 22.8415 12.138 22.6176 11.9453C22.3936 11.7526 22.2035 11.5 22.0473 11.1875C21.891 10.875 21.7634 10.5208 21.6645 10.125C21.5707 9.72396 21.4978 9.31771 21.4457 8.90625C21.3936 8.48958 21.3572 8.08594 21.3363 7.69531C21.3207 7.30469 21.3129 6.95833 21.3129 6.65625C21.3129 6.21875 21.3259 5.76562 21.352 5.29688C21.3832 4.82812 21.4301 4.36979 21.4926 3.92188C21.5551 3.47396 21.6332 3.04948 21.727 2.64844C21.8259 2.2474 21.9405 1.89583 22.0707 1.59375C22.2061 1.29167 22.3598 1.05208 22.5317 0.875C22.7035 0.697917 22.8988 0.609375 23.1176 0.609375C23.2895 0.609375 23.4431 0.651042 23.5785 0.734375C23.7192 0.8125 23.8363 0.942708 23.9301 1.125C24.0238 1.30729 24.0968 1.54427 24.1488 1.83594C24.2009 2.1276 24.227 2.48438 24.227 2.90625C24.227 3.42708 24.1723 3.96615 24.0629 4.52344C23.9535 5.07552 23.8051 5.63281 23.6176 6.19531C23.4301 6.75781 23.2087 7.32031 22.9535 7.88281C22.6983 8.4401 22.4249 8.98438 22.1332 9.51562C22.2634 10.1771 22.4379 10.6979 22.6567 11.0781C22.8754 11.4531 23.1384 11.6406 23.4457 11.6406C23.654 11.6406 23.8546 11.5599 24.0473 11.3984C24.24 11.2318 24.4171 11.0365 24.5785 10.8125C24.74 10.5885 24.8806 10.362 25.0004 10.1328C25.1254 9.89844 25.2218 9.71094 25.2895 9.57031C25.3155 9.51823 25.352 9.47917 25.3988 9.45312C25.4457 9.42188 25.4978 9.40625 25.5551 9.40625C25.6436 9.40625 25.7139 9.4375 25.766 9.5C25.8233 9.5625 25.852 9.63281 25.852 9.71094C25.852 9.74219 25.8415 9.78385 25.8207 9.83594ZM21.9067 6.69531C21.9067 7.02865 21.9145 7.34896 21.9301 7.65625C21.9457 7.96354 21.9665 8.25781 21.9926 8.53906C22.2113 8.11719 22.4197 7.66927 22.6176 7.19531C22.8155 6.71615 22.99 6.23438 23.141 5.75C23.2921 5.26042 23.4119 4.77604 23.5004 4.29688C23.5942 3.8125 23.641 3.35156 23.641 2.91406C23.641 2.29948 23.5915 1.85938 23.4926 1.59375C23.3936 1.32812 23.2608 1.19531 23.0942 1.19531C22.9848 1.19531 22.878 1.27083 22.7738 1.42188C22.6749 1.57292 22.5811 1.77865 22.4926 2.03906C22.404 2.29948 22.3233 2.60677 22.2504 2.96094C22.1775 3.3151 22.115 3.69531 22.0629 4.10156C22.016 4.50781 21.977 4.93229 21.9457 5.375C21.9197 5.81771 21.9067 6.25781 21.9067 6.69531ZM27.265 5.86719C27.265 6.0651 27.1947 6.23438 27.0541 6.375C26.9186 6.51042 26.752 6.57812 26.5541 6.57812C26.3561 6.57812 26.1869 6.51042 26.0463 6.375C25.9108 6.23438 25.8431 6.0651 25.8431 5.86719C25.8431 5.76823 25.8614 5.67708 25.8978 5.59375C25.9343 5.50521 25.9838 5.42969 26.0463 5.36719C26.114 5.29948 26.1895 5.2474 26.2728 5.21094C26.3614 5.17448 26.4551 5.15625 26.5541 5.15625C26.653 5.15625 26.7442 5.17448 26.8275 5.21094C26.916 5.2474 26.9916 5.29948 27.0541 5.36719C27.1218 5.42969 27.1739 5.50521 27.2103 5.59375C27.2468 5.67708 27.265 5.76823 27.265 5.86719ZM25.9994 10.4453C25.9994 9.69531 26.0463 8.94792 26.14 8.20312C26.1504 8.13021 26.1817 8.06771 26.2338 8.01562C26.291 7.95833 26.364 7.92969 26.4525 7.92969C26.5306 7.92969 26.5957 7.96094 26.6478 8.02344C26.6999 8.08073 26.7259 8.14844 26.7259 8.22656C26.7259 8.25781 26.7181 8.35156 26.7025 8.50781C26.6921 8.66406 26.6765 8.85156 26.6556 9.07031C26.64 9.28385 26.6244 9.51302 26.6088 9.75781C26.5983 9.9974 26.5931 10.2188 26.5931 10.4219C26.5931 10.6979 26.6192 10.9219 26.6713 11.0938C26.7285 11.2604 26.7989 11.3906 26.8822 11.4844C26.9707 11.5781 27.0619 11.6406 27.1556 11.6719C27.2546 11.7031 27.3483 11.7188 27.4369 11.7188C27.5827 11.7188 27.7338 11.6667 27.89 11.5625C28.0463 11.4583 28.2051 11.3125 28.3666 11.125C28.5332 10.9375 28.6999 10.7135 28.8666 10.4531C29.0332 10.1875 29.1973 9.89323 29.3588 9.57031C29.3848 9.51823 29.4213 9.47917 29.4681 9.45312C29.515 9.42188 29.5671 9.40625 29.6244 9.40625C29.7077 9.40625 29.7754 9.4375 29.8275 9.5C29.8848 9.5625 29.9134 9.63021 29.9134 9.70312C29.9134 9.75521 29.903 9.79948 29.8822 9.83594C29.8197 9.95573 29.7416 10.1016 29.6478 10.2734C29.5541 10.4453 29.4473 10.6224 29.3275 10.8047C29.2077 10.987 29.0749 11.1693 28.9291 11.3516C28.7884 11.5286 28.6374 11.6901 28.4759 11.8359C28.3145 11.9766 28.1452 12.0911 27.9681 12.1797C27.791 12.2682 27.6114 12.3125 27.4291 12.3125C27.1947 12.3125 26.989 12.263 26.8119 12.1641C26.6348 12.0651 26.4838 11.9323 26.3588 11.7656C26.239 11.599 26.1478 11.4036 26.0853 11.1797C26.028 10.9505 25.9994 10.7057 25.9994 10.4453ZM26.8275 5.86719C26.8275 5.79427 26.7989 5.73177 26.7416 5.67969C26.6895 5.6224 26.627 5.59375 26.5541 5.59375C26.4811 5.59375 26.4186 5.6224 26.3666 5.67969C26.3145 5.73177 26.2884 5.79427 26.2884 5.86719C26.2884 5.9401 26.3145 6.0026 26.3666 6.05469C26.4186 6.10677 26.4811 6.13281 26.5541 6.13281C26.627 6.13281 26.6895 6.10677 26.7416 6.05469C26.7989 6.0026 26.8275 5.9401 26.8275 5.86719ZM36.0843 9.82031C36.0635 9.86198 36.0192 9.95052 35.9515 10.0859C35.889 10.2161 35.8056 10.3672 35.7015 10.5391C35.6025 10.7109 35.4853 10.8906 35.3499 11.0781C35.2145 11.2656 35.0635 11.4375 34.8968 11.5938C34.7301 11.75 34.5504 11.8802 34.3577 11.9844C34.165 12.0833 33.9619 12.1328 33.7484 12.1328C33.4463 12.1328 33.1911 12.0365 32.9827 11.8438C32.7796 11.651 32.6312 11.4089 32.5374 11.1172C32.3603 11.4141 32.1494 11.651 31.9046 11.8281C31.6598 12 31.415 12.0859 31.1702 12.0859C30.9775 12.0859 30.803 12.0521 30.6468 11.9844C30.4905 11.9115 30.3577 11.8125 30.2484 11.6875C30.139 11.5573 30.053 11.4062 29.9905 11.2344C29.9332 11.0625 29.9046 10.875 29.9046 10.6719C29.9046 10.2656 29.9723 9.90885 30.1077 9.60156C30.2484 9.28906 30.4254 9.02865 30.639 8.82031C30.8525 8.61198 31.0869 8.45573 31.3421 8.35156C31.6025 8.2474 31.8525 8.19531 32.0921 8.19531C32.2536 8.19531 32.402 8.21875 32.5374 8.26562C32.6728 8.30729 32.7874 8.35417 32.8812 8.40625C32.9801 8.45833 33.0556 8.50781 33.1077 8.55469C33.1598 8.59635 33.1885 8.61979 33.1937 8.625C33.251 8.69271 33.2796 8.76302 33.2796 8.83594C33.2796 8.91406 33.251 8.98438 33.1937 9.04688C33.1364 9.10417 33.0687 9.13281 32.9905 9.13281C32.9072 9.13281 32.8369 9.10417 32.7796 9.04688C32.7692 9.03646 32.7457 9.01823 32.7093 8.99219C32.6728 8.96094 32.6234 8.92969 32.5609 8.89844C32.4984 8.86719 32.4228 8.84115 32.3343 8.82031C32.251 8.79427 32.1546 8.78125 32.0452 8.78125C31.8838 8.78125 31.7119 8.81771 31.5296 8.89062C31.3473 8.96354 31.1806 9.07812 31.0296 9.23438C30.8786 9.38542 30.751 9.57812 30.6468 9.8125C30.5478 10.0417 30.4984 10.3151 30.4984 10.6328C30.4984 10.7318 30.5088 10.8333 30.5296 10.9375C30.5504 11.0365 30.5869 11.1276 30.639 11.2109C30.6911 11.2943 30.7614 11.362 30.8499 11.4141C30.9385 11.4661 31.0478 11.4922 31.178 11.4922C31.2718 11.4922 31.3786 11.4609 31.4984 11.3984C31.6234 11.3359 31.7405 11.2396 31.8499 11.1094C31.9645 10.9792 32.0661 10.8151 32.1546 10.6172C32.2484 10.4193 32.3135 10.1849 32.3499 9.91406C32.3603 9.84115 32.3942 9.78125 32.4515 9.73438C32.5088 9.68229 32.5765 9.65625 32.6546 9.65625C32.7275 9.65625 32.79 9.6849 32.8421 9.74219C32.8994 9.79948 32.9306 9.86458 32.9359 9.9375C32.9411 10.0365 32.9515 10.1771 32.9671 10.3594C32.9827 10.5365 33.0166 10.7135 33.0687 10.8906C33.126 11.0677 33.2093 11.2214 33.3187 11.3516C33.428 11.4818 33.5791 11.5469 33.7718 11.5469C33.8968 11.5469 34.0192 11.513 34.139 11.4453C34.264 11.3776 34.3838 11.2891 34.4984 11.1797C34.6181 11.0651 34.7301 10.9375 34.8343 10.7969C34.9437 10.651 35.0426 10.5052 35.1312 10.3594C35.2197 10.2135 35.2978 10.0729 35.3655 9.9375C35.4332 9.80208 35.4905 9.6849 35.5374 9.58594C35.5635 9.52865 35.5999 9.48438 35.6468 9.45312C35.6989 9.42188 35.7536 9.40625 35.8109 9.40625C35.8994 9.40625 35.9697 9.4401 36.0218 9.50781C36.0791 9.57031 36.1077 9.63802 36.1077 9.71094C36.1077 9.7474 36.0999 9.78385 36.0843 9.82031ZM50.4025 8.39062C50.4025 8.46354 50.3765 8.52865 50.3244 8.58594C50.2723 8.63802 50.1968 8.66406 50.0979 8.66406C50.0249 8.66406 49.9468 8.66146 49.8635 8.65625C49.7854 8.65104 49.6708 8.64844 49.5197 8.64844C49.4416 8.64844 49.3244 8.65365 49.1682 8.66406C49.0171 8.66927 48.8427 8.67969 48.6447 8.69531C48.452 8.71094 48.2437 8.72917 48.0197 8.75C47.7958 8.76562 47.5692 8.78385 47.34 8.80469C47.3453 8.83073 47.3479 8.8724 47.3479 8.92969C47.3479 9.4349 47.2359 9.88281 47.0119 10.2734C46.7932 10.6641 46.4989 10.9948 46.1291 11.2656C45.7645 11.5312 45.34 11.7344 44.8557 11.875C44.3713 12.0104 43.8687 12.0781 43.3479 12.0781C42.9729 12.0781 42.6187 12.026 42.2854 11.9219C41.9572 11.8177 41.6682 11.6667 41.4182 11.4688C41.1734 11.2708 40.9781 11.0286 40.8322 10.7422C40.6916 10.4557 40.6213 10.1276 40.6213 9.75781C40.6213 9.46094 40.6812 9.1875 40.801 8.9375C40.9208 8.6875 41.0822 8.46615 41.2854 8.27344C41.4937 8.07552 41.7385 7.90885 42.0197 7.77344C42.301 7.63802 42.6057 7.53385 42.9338 7.46094C42.84 7.41927 42.7411 7.36198 42.6369 7.28906C42.538 7.21094 42.4468 7.11979 42.3635 7.01562C42.2802 6.90625 42.2098 6.78385 42.1525 6.64844C42.1005 6.50781 42.0744 6.35417 42.0744 6.1875C42.0744 5.79167 42.163 5.44792 42.34 5.15625C42.5223 4.86458 42.7541 4.6224 43.0354 4.42969C43.3166 4.23698 43.6265 4.09375 43.965 4C44.3088 3.90625 44.6421 3.85938 44.965 3.85938C45.2463 3.85938 45.5067 3.89323 45.7463 3.96094C45.9911 4.02344 46.1994 4.11458 46.3713 4.23438C46.5484 4.34896 46.6864 4.49219 46.7854 4.66406C46.8895 4.83073 46.9416 5.01562 46.9416 5.21875C46.9416 5.39062 46.9078 5.55469 46.84 5.71094C46.7723 5.86198 46.6786 5.99479 46.5588 6.10938C46.4442 6.22396 46.3062 6.3151 46.1447 6.38281C45.9885 6.44531 45.8166 6.47656 45.6291 6.47656C45.4624 6.47656 45.314 6.45312 45.1838 6.40625C45.0588 6.35417 44.952 6.29427 44.8635 6.22656C44.7749 6.15365 44.7072 6.08073 44.6604 6.00781C44.6135 5.92969 44.59 5.86458 44.59 5.8125C44.59 5.72917 44.6161 5.65885 44.6682 5.60156C44.7255 5.54427 44.7958 5.51562 44.8791 5.51562C44.9364 5.51562 44.9807 5.53125 45.0119 5.5625C45.0432 5.58854 45.0744 5.61979 45.1057 5.65625C45.1578 5.71875 45.2203 5.78125 45.2932 5.84375C45.3713 5.90625 45.4937 5.9375 45.6604 5.9375C45.7749 5.9375 45.8739 5.91927 45.9572 5.88281C46.0406 5.84115 46.1109 5.78906 46.1682 5.72656C46.2255 5.65885 46.2671 5.58594 46.2932 5.50781C46.3244 5.42448 46.34 5.34375 46.34 5.26562C46.34 5.16667 46.3114 5.06771 46.2541 4.96875C46.202 4.86979 46.1213 4.78125 46.0119 4.70312C45.9025 4.625 45.7619 4.5625 45.59 4.51562C45.4182 4.46875 45.215 4.44531 44.9807 4.44531C44.7463 4.44531 44.4937 4.47917 44.2229 4.54688C43.9572 4.60938 43.7072 4.70833 43.4729 4.84375C43.2437 4.97396 43.051 5.14583 42.8947 5.35938C42.7437 5.56771 42.6682 5.8151 42.6682 6.10156C42.6682 6.28906 42.6994 6.44792 42.7619 6.57812C42.8296 6.70312 42.9208 6.80729 43.0354 6.89062C43.1499 6.97396 43.2854 7.04167 43.4416 7.09375C43.6031 7.14062 43.7802 7.18229 43.9729 7.21875C44.0458 7.23438 44.1135 7.25 44.176 7.26562C44.2437 7.27604 44.301 7.29427 44.3479 7.32031C44.3999 7.34115 44.439 7.3724 44.465 7.41406C44.4963 7.45052 44.5119 7.5026 44.5119 7.57031C44.5119 7.65365 44.4833 7.72135 44.426 7.77344C44.3739 7.82031 44.301 7.84375 44.2072 7.84375C44.1135 7.84375 43.9755 7.84896 43.7932 7.85938C43.6109 7.86979 43.4078 7.89844 43.1838 7.94531C42.965 7.98698 42.7385 8.04948 42.5041 8.13281C42.2697 8.21094 42.0562 8.32292 41.8635 8.46875C41.676 8.60938 41.5197 8.78385 41.3947 8.99219C41.2749 9.20052 41.215 9.45312 41.215 9.75C41.215 10.0469 41.2697 10.3073 41.3791 10.5312C41.4937 10.75 41.6473 10.9323 41.84 11.0781C42.0328 11.2188 42.2567 11.3255 42.5119 11.3984C42.7723 11.4661 43.051 11.5 43.3479 11.5C43.7645 11.5 44.176 11.4505 44.5822 11.3516C44.9937 11.2474 45.3609 11.0911 45.6838 10.8828C46.0067 10.6745 46.2671 10.4115 46.465 10.0938C46.6682 9.77604 46.7697 9.40365 46.7697 8.97656C46.7697 8.95573 46.7671 8.9375 46.7619 8.92188C46.7619 8.90104 46.7619 8.8776 46.7619 8.85156C46.4807 8.8776 46.2255 8.90365 45.9963 8.92969C45.7723 8.95052 45.5953 8.96615 45.465 8.97656C45.4234 8.98177 45.3869 8.98698 45.3557 8.99219C45.3296 8.99219 45.3088 8.99219 45.2932 8.99219C45.2046 8.99219 45.1291 8.96615 45.0666 8.91406C45.0041 8.86198 44.9729 8.78646 44.9729 8.6875C44.9729 8.61458 44.9963 8.55208 45.0432 8.5C45.0953 8.44271 45.163 8.40885 45.2463 8.39844C45.3973 8.38281 45.5927 8.36198 45.8322 8.33594C46.0718 8.3099 46.3322 8.28646 46.6135 8.26562C46.8999 8.23958 47.1942 8.21615 47.4963 8.19531C47.7984 8.16927 48.0848 8.14583 48.3557 8.125C48.6317 8.10417 48.8817 8.08854 49.1057 8.07812C49.3348 8.06771 49.5171 8.0625 49.6525 8.0625C49.9442 8.0625 50.1421 8.08854 50.2463 8.14062C50.3505 8.19271 50.4025 8.27604 50.4025 8.39062ZM66.8224 9.10156C66.5776 9.4974 66.2468 9.89062 65.8302 10.2812C65.4135 10.6667 64.937 11.0156 64.4005 11.3281C63.8692 11.6354 63.2885 11.8828 62.6583 12.0703C62.0281 12.263 61.3771 12.3594 60.7052 12.3594C60.1791 12.3594 59.6531 12.3125 59.1271 12.2188C58.6062 12.125 58.1036 11.9818 57.6192 11.7891C57.1401 11.5964 56.6922 11.3542 56.2755 11.0625C55.864 10.7656 55.5047 10.4167 55.1974 10.0156C54.8901 9.61458 54.6479 9.15885 54.4708 8.64844C54.2989 8.13802 54.213 7.57031 54.213 6.94531C54.213 6.33594 54.3015 5.75781 54.4786 5.21094C54.6609 4.66406 54.9135 4.15885 55.2364 3.69531C55.5593 3.22656 55.9422 2.80469 56.3849 2.42969C56.8276 2.05469 57.312 1.73698 57.838 1.47656C58.364 1.21094 58.9187 1.00781 59.5021 0.867188C60.0854 0.726562 60.6817 0.65625 61.2911 0.65625C61.963 0.65625 62.5932 0.736979 63.1817 0.898438C63.7755 1.05469 64.2937 1.27865 64.7364 1.57031C65.1791 1.85677 65.5281 2.20312 65.7833 2.60938C66.0437 3.01042 66.1739 3.45833 66.1739 3.95312C66.1739 4.41146 66.0672 4.84896 65.8536 5.26562C65.6401 5.67708 65.3458 6.03906 64.9708 6.35156C64.601 6.66406 64.1661 6.91146 63.6661 7.09375C63.1713 7.27604 62.6427 7.36719 62.0802 7.36719C61.6271 7.36719 61.226 7.3125 60.8771 7.20312C60.5281 7.08854 60.2364 6.93229 60.0021 6.73438C59.7677 6.53646 59.5906 6.30469 59.4708 6.03906C59.351 5.77344 59.2911 5.48698 59.2911 5.17969C59.2911 4.92448 59.3302 4.69271 59.4083 4.48438C59.4916 4.27083 59.5802 4.08854 59.6739 3.9375C59.7729 3.78646 59.864 3.66927 59.9474 3.58594C60.0359 3.4974 60.0854 3.44792 60.0958 3.4375C60.1218 3.41146 60.1505 3.39583 60.1817 3.39062C60.2182 3.38021 60.2521 3.375 60.2833 3.375C60.3666 3.375 60.437 3.40104 60.4942 3.45312C60.5515 3.50521 60.5802 3.57292 60.5802 3.65625C60.5802 3.75 60.5463 3.82812 60.4786 3.89062C60.4682 3.89583 60.4317 3.93229 60.3692 4C60.3067 4.0625 60.239 4.15104 60.1661 4.26562C60.0932 4.375 60.0255 4.50781 59.963 4.66406C59.9057 4.82031 59.8771 4.99219 59.8771 5.17969C59.8771 5.47656 59.9422 5.72656 60.0724 5.92969C60.2078 6.13281 60.3823 6.29948 60.5958 6.42969C60.8093 6.55469 61.0463 6.64583 61.3067 6.70312C61.5672 6.75521 61.8276 6.78125 62.088 6.78125C62.5724 6.78125 63.0255 6.70312 63.4474 6.54688C63.8745 6.39062 64.2468 6.18229 64.5646 5.92188C64.8823 5.66146 65.1323 5.36198 65.3146 5.02344C65.4968 4.6849 65.588 4.33073 65.588 3.96094C65.588 3.55469 65.4734 3.1849 65.2442 2.85156C65.0151 2.51302 64.7052 2.22656 64.3146 1.99219C63.9239 1.7526 63.4656 1.56771 62.9396 1.4375C62.4187 1.30729 61.8614 1.24219 61.2677 1.24219C60.8198 1.24219 60.3484 1.29688 59.8536 1.40625C59.364 1.51042 58.8797 1.66927 58.4005 1.88281C57.9213 2.09635 57.463 2.36198 57.0255 2.67969C56.5932 2.9974 56.213 3.36979 55.8849 3.79688C55.5567 4.21875 55.2937 4.69271 55.0958 5.21875C54.9031 5.74479 54.8067 6.32031 54.8067 6.94531C54.8067 7.51302 54.8849 8.02604 55.0411 8.48438C55.2026 8.94271 55.4239 9.35156 55.7052 9.71094C55.9864 10.0651 56.3146 10.3724 56.6896 10.6328C57.0698 10.8932 57.476 11.1094 57.9083 11.2812C58.3458 11.4479 58.8015 11.5729 59.2755 11.6562C59.7495 11.7344 60.2208 11.7734 60.6896 11.7734C61.3146 11.7734 61.9161 11.6875 62.4942 11.5156C63.0724 11.3385 63.6062 11.1094 64.0958 10.8281C64.5906 10.5417 65.0281 10.2214 65.4083 9.86719C65.7885 9.51302 66.0906 9.15625 66.3146 8.79688C66.3406 8.75 66.3771 8.71615 66.4239 8.69531C66.4708 8.66927 66.5203 8.65625 66.5724 8.65625C66.6609 8.65625 66.7312 8.6875 66.7833 8.75C66.8354 8.80729 66.8614 8.8724 66.8614 8.94531C66.8614 8.97135 66.8588 8.9974 66.8536 9.02344C66.8484 9.04948 66.838 9.07552 66.8224 9.10156ZM74.3682 9.82031C74.3474 9.86198 74.3031 9.95052 74.2354 10.0859C74.1729 10.2161 74.0896 10.3672 73.9854 10.5391C73.8864 10.7109 73.7693 10.8906 73.6338 11.0781C73.4984 11.2656 73.3474 11.4375 73.1807 11.5938C73.0141 11.75 72.8344 11.8802 72.6417 11.9844C72.4489 12.0833 72.2458 12.1328 72.0323 12.1328C71.7302 12.1328 71.475 12.0365 71.2667 11.8438C71.0635 11.651 70.9151 11.4089 70.8213 11.1172C70.6443 11.4141 70.4333 11.651 70.1885 11.8281C69.9437 12 69.6989 12.0859 69.4542 12.0859C69.2614 12.0859 69.087 12.0521 68.9307 11.9844C68.7745 11.9115 68.6417 11.8125 68.5323 11.6875C68.4229 11.5573 68.337 11.4062 68.2745 11.2344C68.2172 11.0625 68.1885 10.875 68.1885 10.6719C68.1885 10.2656 68.2562 9.90885 68.3917 9.60156C68.5323 9.28906 68.7094 9.02865 68.9229 8.82031C69.1364 8.61198 69.3708 8.45573 69.626 8.35156C69.8864 8.2474 70.1364 8.19531 70.376 8.19531C70.5375 8.19531 70.6859 8.21875 70.8213 8.26562C70.9568 8.30729 71.0713 8.35417 71.1651 8.40625C71.2641 8.45833 71.3396 8.50781 71.3917 8.55469C71.4437 8.59635 71.4724 8.61979 71.4776 8.625C71.5349 8.69271 71.5635 8.76302 71.5635 8.83594C71.5635 8.91406 71.5349 8.98438 71.4776 9.04688C71.4203 9.10417 71.3526 9.13281 71.2745 9.13281C71.1911 9.13281 71.1208 9.10417 71.0635 9.04688C71.0531 9.03646 71.0297 9.01823 70.9932 8.99219C70.9568 8.96094 70.9073 8.92969 70.8448 8.89844C70.7823 8.86719 70.7068 8.84115 70.6182 8.82031C70.5349 8.79427 70.4385 8.78125 70.3292 8.78125C70.1677 8.78125 69.9958 8.81771 69.8135 8.89062C69.6312 8.96354 69.4646 9.07812 69.3135 9.23438C69.1625 9.38542 69.0349 9.57812 68.9307 9.8125C68.8318 10.0417 68.7823 10.3151 68.7823 10.6328C68.7823 10.7318 68.7927 10.8333 68.8135 10.9375C68.8344 11.0365 68.8708 11.1276 68.9229 11.2109C68.975 11.2943 69.0453 11.362 69.1338 11.4141C69.2224 11.4661 69.3318 11.4922 69.462 11.4922C69.5557 11.4922 69.6625 11.4609 69.7823 11.3984C69.9073 11.3359 70.0245 11.2396 70.1338 11.1094C70.2484 10.9792 70.35 10.8151 70.4385 10.6172C70.5323 10.4193 70.5974 10.1849 70.6338 9.91406C70.6443 9.84115 70.6781 9.78125 70.7354 9.73438C70.7927 9.68229 70.8604 9.65625 70.9385 9.65625C71.0114 9.65625 71.0739 9.6849 71.126 9.74219C71.1833 9.79948 71.2146 9.86458 71.2198 9.9375C71.225 10.0365 71.2354 10.1771 71.251 10.3594C71.2667 10.5365 71.3005 10.7135 71.3526 10.8906C71.4099 11.0677 71.4932 11.2214 71.6026 11.3516C71.712 11.4818 71.863 11.5469 72.0557 11.5469C72.1807 11.5469 72.3031 11.513 72.4229 11.4453C72.5479 11.3776 72.6677 11.2891 72.7823 11.1797C72.9021 11.0651 73.0141 10.9375 73.1182 10.7969C73.2276 10.651 73.3266 10.5052 73.4151 10.3594C73.5036 10.2135 73.5818 10.0729 73.6495 9.9375C73.7172 9.80208 73.7745 9.6849 73.8213 9.58594C73.8474 9.52865 73.8838 9.48438 73.9307 9.45312C73.9828 9.42188 74.0375 9.40625 74.0948 9.40625C74.1833 9.40625 74.2536 9.4401 74.3057 9.50781C74.363 9.57031 74.3917 9.63802 74.3917 9.71094C74.3917 9.7474 74.3838 9.78385 74.3682 9.82031ZM81.1094 9.83594C81.0938 9.86719 81.0599 9.93229 81.0078 10.0312C80.9557 10.125 80.888 10.237 80.8047 10.3672C80.7214 10.4922 80.6224 10.6276 80.5078 10.7734C80.3932 10.9141 80.2682 11.0443 80.1328 11.1641C79.9974 11.2839 79.8516 11.3828 79.6953 11.4609C79.5391 11.5391 79.3776 11.5781 79.2109 11.5781C78.9401 11.5781 78.7109 11.5312 78.5234 11.4375C78.3359 11.3385 78.1823 11.2292 78.0625 11.1094C77.9792 11.2917 77.8776 11.4583 77.7578 11.6094C77.638 11.7604 77.5052 11.8906 77.3594 12C77.2135 12.1146 77.0573 12.2031 76.8906 12.2656C76.7292 12.3281 76.5625 12.3594 76.3906 12.3594C76.0729 12.3594 75.8021 12.2656 75.5781 12.0781C75.3542 11.8906 75.1667 11.6406 75.0156 11.3281C74.8698 11.0104 74.7552 10.6432 74.6719 10.2266C74.5885 9.8099 74.5234 9.3724 74.4766 8.91406C74.4349 8.45573 74.4089 7.99219 74.3984 7.52344C74.388 7.05469 74.3828 6.60938 74.3828 6.1875C74.3828 5.38021 74.4062 4.68229 74.4531 4.09375C74.5 3.5 74.5625 2.9974 74.6406 2.58594C74.724 2.16927 74.8177 1.83333 74.9219 1.57812C75.0312 1.31771 75.1458 1.11719 75.2656 0.976562C75.3854 0.830729 75.5078 0.731771 75.6328 0.679688C75.7578 0.627604 75.8802 0.601562 76 0.601562C76.1927 0.601562 76.362 0.658854 76.5078 0.773438C76.6589 0.888021 76.7839 1.04948 76.8828 1.25781C76.987 1.46094 77.0651 1.70833 77.1172 2C77.1693 2.29167 77.1953 2.61198 77.1953 2.96094C77.1953 3.51823 77.1354 4.09375 77.0156 4.6875C76.8958 5.28125 76.7396 5.875 76.5469 6.46875C76.3594 7.05729 76.1484 7.63802 75.9141 8.21094C75.6797 8.77865 75.4479 9.31771 75.2188 9.82812C75.25 10.0833 75.2969 10.3281 75.3594 10.5625C75.4219 10.7917 75.5026 10.9974 75.6016 11.1797C75.7005 11.3568 75.8177 11.5 75.9531 11.6094C76.0885 11.7135 76.2448 11.7656 76.4219 11.7656C76.599 11.7656 76.7656 11.7161 76.9219 11.6172C77.0781 11.513 77.2135 11.3802 77.3281 11.2188C77.4427 11.0521 77.5312 10.8646 77.5938 10.6562C77.6615 10.4479 77.6953 10.2344 77.6953 10.0156C77.6953 9.86979 77.6797 9.72396 77.6484 9.57812C77.6224 9.42708 77.5781 9.29427 77.5156 9.17969C77.4583 9.0599 77.3854 8.96354 77.2969 8.89062C77.2083 8.81771 77.1016 8.78125 76.9766 8.78125C76.8828 8.78125 76.8099 8.80208 76.7578 8.84375C76.7057 8.88021 76.6667 8.92448 76.6406 8.97656C76.6146 9.02344 76.599 9.07031 76.5938 9.11719C76.5885 9.16406 76.5859 9.19531 76.5859 9.21094C76.5859 9.28385 76.6016 9.35677 76.6328 9.42969C76.6641 9.5026 76.724 9.56771 76.8125 9.625C76.901 9.6875 76.9453 9.77344 76.9453 9.88281C76.9453 9.97135 76.9141 10.0417 76.8516 10.0938C76.7943 10.1458 76.7292 10.1719 76.6562 10.1719C76.5521 10.1719 76.4583 10.1406 76.375 10.0781C76.2969 10.0156 76.2292 9.9375 76.1719 9.84375C76.1146 9.74479 76.0703 9.64062 76.0391 9.53125C76.0078 9.42188 75.9922 9.32031 75.9922 9.22656C75.9922 9.07552 76.0182 8.9375 76.0703 8.8125C76.1224 8.68229 76.1927 8.57292 76.2812 8.48438C76.375 8.39062 76.4792 8.32031 76.5938 8.27344C76.7135 8.22135 76.8385 8.19531 76.9688 8.19531C77.1927 8.19531 77.3854 8.2474 77.5469 8.35156C77.7135 8.45573 77.8516 8.59375 77.9609 8.76562C78.0703 8.9375 78.151 9.13281 78.2031 9.35156C78.2552 9.57031 78.2812 9.79167 78.2812 10.0156C78.2812 10.1458 78.2734 10.2734 78.2578 10.3984C78.2786 10.4401 78.3125 10.4948 78.3594 10.5625C78.4062 10.6302 78.4688 10.6953 78.5469 10.7578C78.625 10.8203 78.7188 10.875 78.8281 10.9219C78.9375 10.9688 79.0651 10.9922 79.2109 10.9922C79.3359 10.9922 79.4635 10.9453 79.5938 10.8516C79.7292 10.7526 79.8568 10.6328 79.9766 10.4922C80.1016 10.3464 80.2161 10.1927 80.3203 10.0312C80.4245 9.86458 80.5104 9.71094 80.5781 9.57031C80.6042 9.51823 80.6406 9.47917 80.6875 9.45312C80.7344 9.42188 80.7865 9.40625 80.8438 9.40625C80.9323 9.40625 81.0026 9.4375 81.0547 9.5C81.112 9.5625 81.1406 9.63281 81.1406 9.71094C81.1406 9.74219 81.1302 9.78385 81.1094 9.83594ZM75.0703 8.82812C75.2474 8.39062 75.4271 7.93229 75.6094 7.45312C75.7917 6.96875 75.9557 6.47656 76.1016 5.97656C76.2474 5.47656 76.3672 4.97135 76.4609 4.46094C76.5547 3.95052 76.6016 3.44792 76.6016 2.95312C76.6016 2.76562 76.5911 2.57031 76.5703 2.36719C76.5547 2.15885 76.5234 1.96875 76.4766 1.79688C76.4297 1.625 76.3646 1.48177 76.2812 1.36719C76.2031 1.2526 76.1016 1.19531 75.9766 1.19531C75.9349 1.19531 75.8802 1.22396 75.8125 1.28125C75.75 1.33333 75.6823 1.42969 75.6094 1.57031C75.5365 1.70573 75.4635 1.89583 75.3906 2.14062C75.3177 2.38542 75.25 2.69792 75.1875 3.07812C75.1302 3.45312 75.0807 3.90625 75.0391 4.4375C75.0026 4.96875 74.9844 5.59375 74.9844 6.3125C74.9844 6.55208 74.987 6.79688 74.9922 7.04688C74.9974 7.29167 75.0026 7.52604 75.0078 7.75C75.0182 7.97396 75.0286 8.17969 75.0391 8.36719C75.0495 8.55469 75.0599 8.70833 75.0703 8.82812ZM82.2177 11.1406C82.3271 11.2917 82.4677 11.4141 82.6396 11.5078C82.8115 11.5964 83.0224 11.6406 83.2724 11.6406C83.5276 11.6406 83.7594 11.5807 83.9677 11.4609C84.1761 11.3359 84.3662 11.1745 84.538 10.9766C84.7099 10.7786 84.8636 10.5573 84.999 10.3125C85.1344 10.0677 85.2568 9.82292 85.3662 9.57812C85.3922 9.52083 85.4287 9.47917 85.4755 9.45312C85.5224 9.42188 85.5745 9.40625 85.6318 9.40625C85.7203 9.40625 85.7906 9.4375 85.8427 9.5C85.9 9.5625 85.9287 9.63021 85.9287 9.70312C85.9287 9.72917 85.9261 9.7526 85.9209 9.77344C85.9156 9.78906 85.9078 9.80729 85.8974 9.82812C85.538 10.6198 85.1448 11.2161 84.7177 11.6172C84.2959 12.0182 83.8167 12.224 83.2802 12.2344C82.9365 12.2344 82.6396 12.1667 82.3896 12.0312C82.1396 11.901 81.9339 11.7318 81.7724 11.5234C81.611 11.3099 81.4912 11.0703 81.413 10.8047C81.3349 10.5391 81.2959 10.2734 81.2959 10.0078C81.2959 9.74219 81.3271 9.4974 81.3896 9.27344C81.4573 9.04948 81.5511 8.85417 81.6709 8.6875C81.7959 8.52083 81.9417 8.39062 82.1084 8.29688C82.2802 8.20312 82.4677 8.15625 82.6709 8.15625C82.7906 8.15625 82.9078 8.18229 83.0224 8.23438C83.1422 8.28125 83.249 8.35156 83.3427 8.44531C83.4365 8.53385 83.512 8.64323 83.5693 8.77344C83.6266 8.90365 83.6552 9.05208 83.6552 9.21875C83.6552 9.43229 83.6188 9.63281 83.5459 9.82031C83.4729 10.0078 83.3714 10.1823 83.2412 10.3438C83.1162 10.5052 82.9651 10.6536 82.788 10.7891C82.611 10.9245 82.4209 11.0417 82.2177 11.1406ZM81.9834 10.6328C82.1448 10.5651 82.2906 10.4792 82.4209 10.375C82.5563 10.2708 82.6709 10.1562 82.7646 10.0312C82.8584 9.90625 82.9313 9.77604 82.9834 9.64062C83.0354 9.5 83.0615 9.35938 83.0615 9.21875C83.0615 9.0625 83.0224 8.94531 82.9443 8.86719C82.8662 8.78385 82.775 8.74219 82.6709 8.74219C82.5302 8.74219 82.4104 8.78125 82.3115 8.85938C82.2125 8.9375 82.1318 9.03906 82.0693 9.16406C82.0068 9.28906 81.9599 9.42969 81.9287 9.58594C81.9026 9.73698 81.8896 9.88802 81.8896 10.0391C81.8896 10.1328 81.8974 10.2318 81.913 10.3359C81.9339 10.4401 81.9573 10.5391 81.9834 10.6328ZM90.5136 9.83594C90.4563 9.95573 90.3834 10.099 90.2948 10.2656C90.2115 10.4271 90.1151 10.5964 90.0058 10.7734C89.8964 10.9505 89.774 11.1276 89.6386 11.3047C89.5032 11.4766 89.3547 11.6328 89.1933 11.7734C89.037 11.9089 88.8677 12.0182 88.6854 12.1016C88.5084 12.1901 88.3183 12.2344 88.1151 12.2344C87.8026 12.2344 87.5344 12.138 87.3104 11.9453C87.0865 11.7526 86.8964 11.5 86.7401 11.1875C86.5839 10.875 86.4563 10.5208 86.3573 10.125C86.2636 9.72396 86.1907 9.31771 86.1386 8.90625C86.0865 8.48958 86.05 8.08594 86.0292 7.69531C86.0136 7.30469 86.0058 6.95833 86.0058 6.65625C86.0058 6.21875 86.0188 5.76562 86.0448 5.29688C86.0761 4.82812 86.1229 4.36979 86.1854 3.92188C86.2479 3.47396 86.3261 3.04948 86.4198 2.64844C86.5188 2.2474 86.6334 1.89583 86.7636 1.59375C86.899 1.29167 87.0526 1.05208 87.2245 0.875C87.3964 0.697917 87.5917 0.609375 87.8104 0.609375C87.9823 0.609375 88.136 0.651042 88.2714 0.734375C88.412 0.8125 88.5292 0.942708 88.6229 1.125C88.7167 1.30729 88.7896 1.54427 88.8417 1.83594C88.8938 2.1276 88.9198 2.48438 88.9198 2.90625C88.9198 3.42708 88.8651 3.96615 88.7558 4.52344C88.6464 5.07552 88.4979 5.63281 88.3104 6.19531C88.1229 6.75781 87.9016 7.32031 87.6464 7.88281C87.3912 8.4401 87.1177 8.98438 86.8261 9.51562C86.9563 10.1771 87.1308 10.6979 87.3495 11.0781C87.5683 11.4531 87.8313 11.6406 88.1386 11.6406C88.3469 11.6406 88.5474 11.5599 88.7401 11.3984C88.9328 11.2318 89.1099 11.0365 89.2714 10.8125C89.4328 10.5885 89.5735 10.362 89.6933 10.1328C89.8183 9.89844 89.9146 9.71094 89.9823 9.57031C90.0084 9.51823 90.0448 9.47917 90.0917 9.45312C90.1386 9.42188 90.1907 9.40625 90.2479 9.40625C90.3365 9.40625 90.4068 9.4375 90.4589 9.5C90.5162 9.5625 90.5448 9.63281 90.5448 9.71094C90.5448 9.74219 90.5344 9.78385 90.5136 9.83594ZM86.5995 6.69531C86.5995 7.02865 86.6073 7.34896 86.6229 7.65625C86.6386 7.96354 86.6594 8.25781 86.6854 8.53906C86.9042 8.11719 87.1125 7.66927 87.3104 7.19531C87.5084 6.71615 87.6828 6.23438 87.8339 5.75C87.9849 5.26042 88.1047 4.77604 88.1933 4.29688C88.287 3.8125 88.3339 3.35156 88.3339 2.91406C88.3339 2.29948 88.2844 1.85938 88.1854 1.59375C88.0865 1.32812 87.9537 1.19531 87.787 1.19531C87.6776 1.19531 87.5709 1.27083 87.4667 1.42188C87.3677 1.57292 87.274 1.77865 87.1854 2.03906C87.0969 2.29948 87.0162 2.60677 86.9433 2.96094C86.8703 3.3151 86.8078 3.69531 86.7558 4.10156C86.7089 4.50781 86.6698 4.93229 86.6386 5.375C86.6125 5.81771 86.5995 6.25781 86.5995 6.69531ZM91.6219 11.1406C91.7313 11.2917 91.8719 11.4141 92.0438 11.5078C92.2157 11.5964 92.4266 11.6406 92.6766 11.6406C92.9318 11.6406 93.1636 11.5807 93.3719 11.4609C93.5803 11.3359 93.7704 11.1745 93.9422 10.9766C94.1141 10.7786 94.2678 10.5573 94.4032 10.3125C94.5386 10.0677 94.661 9.82292 94.7704 9.57812C94.7964 9.52083 94.8329 9.47917 94.8797 9.45312C94.9266 9.42188 94.9787 9.40625 95.036 9.40625C95.1245 9.40625 95.1948 9.4375 95.2469 9.5C95.3042 9.5625 95.3329 9.63021 95.3329 9.70312C95.3329 9.72917 95.3303 9.7526 95.325 9.77344C95.3198 9.78906 95.312 9.80729 95.3016 9.82812C94.9422 10.6198 94.549 11.2161 94.1219 11.6172C93.7 12.0182 93.2209 12.224 92.6844 12.2344C92.3407 12.2344 92.0438 12.1667 91.7938 12.0312C91.5438 11.901 91.3381 11.7318 91.1766 11.5234C91.0151 11.3099 90.8954 11.0703 90.8172 10.8047C90.7391 10.5391 90.7 10.2734 90.7 10.0078C90.7 9.74219 90.7313 9.4974 90.7938 9.27344C90.8615 9.04948 90.9553 8.85417 91.075 8.6875C91.2 8.52083 91.3459 8.39062 91.5125 8.29688C91.6844 8.20312 91.8719 8.15625 92.075 8.15625C92.1948 8.15625 92.312 8.18229 92.4266 8.23438C92.5464 8.28125 92.6532 8.35156 92.7469 8.44531C92.8407 8.53385 92.9162 8.64323 92.9735 8.77344C93.0308 8.90365 93.0594 9.05208 93.0594 9.21875C93.0594 9.43229 93.023 9.63281 92.95 9.82031C92.8771 10.0078 92.7756 10.1823 92.6454 10.3438C92.5204 10.5052 92.3693 10.6536 92.1922 10.7891C92.0151 10.9245 91.825 11.0417 91.6219 11.1406ZM91.3875 10.6328C91.549 10.5651 91.6948 10.4792 91.825 10.375C91.9605 10.2708 92.075 10.1562 92.1688 10.0312C92.2625 9.90625 92.3355 9.77604 92.3875 9.64062C92.4396 9.5 92.4657 9.35938 92.4657 9.21875C92.4657 9.0625 92.4266 8.94531 92.3485 8.86719C92.2704 8.78385 92.1792 8.74219 92.075 8.74219C91.9344 8.74219 91.8146 8.78125 91.7157 8.85938C91.6167 8.9375 91.536 9.03906 91.4735 9.16406C91.411 9.28906 91.3641 9.42969 91.3329 9.58594C91.3068 9.73698 91.2938 9.88802 91.2938 10.0391C91.2938 10.1328 91.3016 10.2318 91.3172 10.3359C91.3381 10.4401 91.3615 10.5391 91.3875 10.6328ZM96.7459 5.86719C96.7459 6.0651 96.6756 6.23438 96.535 6.375C96.3995 6.51042 96.2329 6.57812 96.035 6.57812C95.837 6.57812 95.6678 6.51042 95.5271 6.375C95.3917 6.23438 95.324 6.0651 95.324 5.86719C95.324 5.76823 95.3422 5.67708 95.3787 5.59375C95.4152 5.50521 95.4646 5.42969 95.5271 5.36719C95.5949 5.29948 95.6704 5.2474 95.7537 5.21094C95.8422 5.17448 95.936 5.15625 96.035 5.15625C96.1339 5.15625 96.2251 5.17448 96.3084 5.21094C96.3969 5.2474 96.4725 5.29948 96.535 5.36719C96.6027 5.42969 96.6547 5.50521 96.6912 5.59375C96.7277 5.67708 96.7459 5.76823 96.7459 5.86719ZM95.4803 10.4453C95.4803 9.69531 95.5271 8.94792 95.6209 8.20312C95.6313 8.13021 95.6626 8.06771 95.7146 8.01562C95.7719 7.95833 95.8449 7.92969 95.9334 7.92969C96.0115 7.92969 96.0766 7.96094 96.1287 8.02344C96.1808 8.08073 96.2068 8.14844 96.2068 8.22656C96.2068 8.25781 96.199 8.35156 96.1834 8.50781C96.173 8.66406 96.1574 8.85156 96.1365 9.07031C96.1209 9.28385 96.1053 9.51302 96.0896 9.75781C96.0792 9.9974 96.074 10.2188 96.074 10.4219C96.074 10.6979 96.1001 10.9219 96.1521 11.0938C96.2094 11.2604 96.2797 11.3906 96.3631 11.4844C96.4516 11.5781 96.5428 11.6406 96.6365 11.6719C96.7355 11.7031 96.8292 11.7188 96.9178 11.7188C97.0636 11.7188 97.2146 11.6667 97.3709 11.5625C97.5271 11.4583 97.686 11.3125 97.8475 11.125C98.0141 10.9375 98.1808 10.7135 98.3475 10.4531C98.5141 10.1875 98.6782 9.89323 98.8396 9.57031C98.8657 9.51823 98.9021 9.47917 98.949 9.45312C98.9959 9.42188 99.048 9.40625 99.1053 9.40625C99.1886 9.40625 99.2563 9.4375 99.3084 9.5C99.3657 9.5625 99.3943 9.63021 99.3943 9.70312C99.3943 9.75521 99.3839 9.79948 99.3631 9.83594C99.3006 9.95573 99.2225 10.1016 99.1287 10.2734C99.035 10.4453 98.9282 10.6224 98.8084 10.8047C98.6886 10.987 98.5558 11.1693 98.41 11.3516C98.2693 11.5286 98.1183 11.6901 97.9568 11.8359C97.7954 11.9766 97.6261 12.0911 97.449 12.1797C97.2719 12.2682 97.0922 12.3125 96.91 12.3125C96.6756 12.3125 96.4699 12.263 96.2928 12.1641C96.1157 12.0651 95.9646 11.9323 95.8396 11.7656C95.7199 11.599 95.6287 11.4036 95.5662 11.1797C95.5089 10.9505 95.4803 10.7057 95.4803 10.4453ZM96.3084 5.86719C96.3084 5.79427 96.2797 5.73177 96.2225 5.67969C96.1704 5.6224 96.1079 5.59375 96.035 5.59375C95.962 5.59375 95.8995 5.6224 95.8475 5.67969C95.7954 5.73177 95.7693 5.79427 95.7693 5.86719C95.7693 5.9401 95.7954 6.0026 95.8475 6.05469C95.8995 6.10677 95.962 6.13281 96.035 6.13281C96.1079 6.13281 96.1704 6.10677 96.2225 6.05469C96.2797 6.0026 96.3084 5.9401 96.3084 5.86719ZM100.346 8.78906C100.326 8.92969 100.3 9.0625 100.268 9.1875C100.237 9.30729 100.206 9.41406 100.175 9.50781C100.149 9.59635 100.125 9.66927 100.104 9.72656C100.083 9.78385 100.07 9.8151 100.065 9.82031C100.013 9.9401 99.9219 10 99.7917 10C99.7188 10 99.6511 9.97396 99.5886 9.92188C99.5261 9.86458 99.4949 9.79427 99.4949 9.71094C99.4949 9.67969 99.5001 9.65625 99.5105 9.64062C99.5209 9.625 99.5365 9.59375 99.5574 9.54688C99.5782 9.5 99.6042 9.42188 99.6355 9.3125C99.6667 9.20312 99.7058 9.03385 99.7527 8.80469C99.6641 8.80469 99.573 8.80208 99.4792 8.79688C99.3855 8.79167 99.2996 8.77344 99.2214 8.74219C99.1381 8.71094 99.0704 8.66146 99.0183 8.59375C98.9662 8.52604 98.9402 8.43229 98.9402 8.3125C98.9402 8.22396 98.9662 8.10417 99.0183 7.95312C99.0652 7.80208 99.1303 7.65365 99.2136 7.50781C99.2969 7.36198 99.3907 7.23698 99.4949 7.13281C99.599 7.02344 99.7032 6.96875 99.8074 6.96875C99.9272 6.96875 100.024 7.01302 100.096 7.10156C100.175 7.1901 100.234 7.29948 100.276 7.42969C100.318 7.55469 100.346 7.6875 100.362 7.82812C100.383 7.96875 100.393 8.09115 100.393 8.19531C100.482 8.19531 100.568 8.19531 100.651 8.19531C100.74 8.1901 100.823 8.1875 100.901 8.1875C101.198 8.1875 101.425 8.2526 101.581 8.38281C101.737 8.51302 101.815 8.72656 101.815 9.02344C101.815 9.14323 101.807 9.26823 101.792 9.39844C101.776 9.52865 101.758 9.66406 101.737 9.80469C101.716 9.9401 101.698 10.0755 101.682 10.2109C101.667 10.3464 101.659 10.4792 101.659 10.6094C101.659 10.7969 101.685 10.9531 101.737 11.0781C101.789 11.1979 101.854 11.2943 101.932 11.3672C102.01 11.4401 102.094 11.4922 102.182 11.5234C102.271 11.5495 102.352 11.5625 102.425 11.5625C102.649 11.5625 102.859 11.4896 103.057 11.3438C103.255 11.1979 103.438 11.0234 103.604 10.8203C103.771 10.612 103.919 10.3932 104.05 10.1641C104.185 9.9349 104.297 9.73438 104.385 9.5625C104.412 9.51562 104.448 9.47917 104.495 9.45312C104.542 9.42708 104.591 9.41406 104.643 9.41406C104.737 9.41406 104.81 9.44531 104.862 9.50781C104.914 9.5651 104.94 9.63021 104.94 9.70312C104.94 9.75521 104.93 9.80208 104.909 9.84375C104.789 10.0573 104.649 10.2995 104.487 10.5703C104.331 10.8359 104.151 11.0859 103.948 11.3203C103.745 11.5547 103.516 11.7526 103.26 11.9141C103.01 12.0755 102.734 12.1562 102.432 12.1562C102.245 12.1562 102.068 12.1198 101.901 12.0469C101.734 11.9792 101.589 11.8802 101.464 11.75C101.344 11.6146 101.247 11.4505 101.175 11.2578C101.102 11.0599 101.065 10.8385 101.065 10.5938C101.065 10.3333 101.091 10.0755 101.143 9.82031C101.195 9.5599 101.221 9.3125 101.221 9.07812C101.221 8.97917 101.198 8.90625 101.151 8.85938C101.109 8.80729 101.013 8.78125 100.862 8.78125C100.789 8.78125 100.708 8.78125 100.62 8.78125C100.537 8.78125 100.445 8.78385 100.346 8.78906ZM99.823 8.21094C99.823 8.17448 99.8204 8.1276 99.8152 8.07031C99.8152 8.00781 99.81 7.94792 99.7996 7.89062C99.7943 7.83333 99.7839 7.78385 99.7683 7.74219C99.7579 7.70052 99.7449 7.67969 99.7292 7.67969C99.7136 7.67969 99.6928 7.70052 99.6667 7.74219C99.6459 7.77865 99.6225 7.82552 99.5964 7.88281C99.5704 7.9349 99.5469 7.99219 99.5261 8.05469C99.5053 8.11719 99.4897 8.16927 99.4792 8.21094H99.823ZM106.017 11.1406C106.127 11.2917 106.267 11.4141 106.439 11.5078C106.611 11.5964 106.822 11.6406 107.072 11.6406C107.327 11.6406 107.559 11.5807 107.767 11.4609C107.976 11.3359 108.166 11.1745 108.338 10.9766C108.509 10.7786 108.663 10.5573 108.799 10.3125C108.934 10.0677 109.056 9.82292 109.166 9.57812C109.192 9.52083 109.228 9.47917 109.275 9.45312C109.322 9.42188 109.374 9.40625 109.431 9.40625C109.52 9.40625 109.59 9.4375 109.642 9.5C109.7 9.5625 109.728 9.63021 109.728 9.70312C109.728 9.72917 109.726 9.7526 109.72 9.77344C109.715 9.78906 109.707 9.80729 109.697 9.82812C109.338 10.6198 108.944 11.2161 108.517 11.6172C108.095 12.0182 107.616 12.224 107.08 12.2344C106.736 12.2344 106.439 12.1667 106.189 12.0312C105.939 11.901 105.733 11.7318 105.572 11.5234C105.411 11.3099 105.291 11.0703 105.213 10.8047C105.134 10.5391 105.095 10.2734 105.095 10.0078C105.095 9.74219 105.127 9.4974 105.189 9.27344C105.257 9.04948 105.351 8.85417 105.47 8.6875C105.595 8.52083 105.741 8.39062 105.908 8.29688C106.08 8.20312 106.267 8.15625 106.47 8.15625C106.59 8.15625 106.707 8.18229 106.822 8.23438C106.942 8.28125 107.049 8.35156 107.142 8.44531C107.236 8.53385 107.312 8.64323 107.369 8.77344C107.426 8.90365 107.455 9.05208 107.455 9.21875C107.455 9.43229 107.418 9.63281 107.345 9.82031C107.272 10.0078 107.171 10.1823 107.041 10.3438C106.916 10.5052 106.765 10.6536 106.588 10.7891C106.411 10.9245 106.22 11.0417 106.017 11.1406ZM105.783 10.6328C105.944 10.5651 106.09 10.4792 106.22 10.375C106.356 10.2708 106.47 10.1562 106.564 10.0312C106.658 9.90625 106.731 9.77604 106.783 9.64062C106.835 9.5 106.861 9.35938 106.861 9.21875C106.861 9.0625 106.822 8.94531 106.744 8.86719C106.666 8.78385 106.575 8.74219 106.47 8.74219C106.33 8.74219 106.21 8.78125 106.111 8.85938C106.012 8.9375 105.931 9.03906 105.869 9.16406C105.806 9.28906 105.759 9.42969 105.728 9.58594C105.702 9.73698 105.689 9.88802 105.689 10.0391C105.689 10.1328 105.697 10.2318 105.713 10.3359C105.733 10.4401 105.757 10.5391 105.783 10.6328ZM111.141 5.86719C111.141 6.0651 111.071 6.23438 110.93 6.375C110.795 6.51042 110.628 6.57812 110.43 6.57812C110.232 6.57812 110.063 6.51042 109.923 6.375C109.787 6.23438 109.719 6.0651 109.719 5.86719C109.719 5.76823 109.738 5.67708 109.774 5.59375C109.811 5.50521 109.86 5.42969 109.923 5.36719C109.99 5.29948 110.066 5.2474 110.149 5.21094C110.238 5.17448 110.331 5.15625 110.43 5.15625C110.529 5.15625 110.62 5.17448 110.704 5.21094C110.792 5.2474 110.868 5.29948 110.93 5.36719C110.998 5.42969 111.05 5.50521 111.087 5.59375C111.123 5.67708 111.141 5.76823 111.141 5.86719ZM109.876 10.4453C109.876 9.69531 109.923 8.94792 110.016 8.20312C110.027 8.13021 110.058 8.06771 110.11 8.01562C110.167 7.95833 110.24 7.92969 110.329 7.92969C110.407 7.92969 110.472 7.96094 110.524 8.02344C110.576 8.08073 110.602 8.14844 110.602 8.22656C110.602 8.25781 110.594 8.35156 110.579 8.50781C110.568 8.66406 110.553 8.85156 110.532 9.07031C110.516 9.28385 110.501 9.51302 110.485 9.75781C110.475 9.9974 110.469 10.2188 110.469 10.4219C110.469 10.6979 110.495 10.9219 110.548 11.0938C110.605 11.2604 110.675 11.3906 110.758 11.4844C110.847 11.5781 110.938 11.6406 111.032 11.6719C111.131 11.7031 111.225 11.7188 111.313 11.7188C111.459 11.7188 111.61 11.6667 111.766 11.5625C111.923 11.4583 112.081 11.3125 112.243 11.125C112.409 10.9375 112.576 10.7135 112.743 10.4531C112.909 10.1875 113.074 9.89323 113.235 9.57031C113.261 9.51823 113.298 9.47917 113.344 9.45312C113.391 9.42188 113.443 9.40625 113.501 9.40625C113.584 9.40625 113.652 9.4375 113.704 9.5C113.761 9.5625 113.79 9.63021 113.79 9.70312C113.79 9.75521 113.779 9.79948 113.758 9.83594C113.696 9.95573 113.618 10.1016 113.524 10.2734C113.43 10.4453 113.324 10.6224 113.204 10.8047C113.084 10.987 112.951 11.1693 112.805 11.3516C112.665 11.5286 112.514 11.6901 112.352 11.8359C112.191 11.9766 112.021 12.0911 111.844 12.1797C111.667 12.2682 111.488 12.3125 111.305 12.3125C111.071 12.3125 110.865 12.263 110.688 12.1641C110.511 12.0651 110.36 11.9323 110.235 11.7656C110.115 11.599 110.024 11.4036 109.962 11.1797C109.904 10.9505 109.876 10.7057 109.876 10.4453ZM110.704 5.86719C110.704 5.79427 110.675 5.73177 110.618 5.67969C110.566 5.6224 110.503 5.59375 110.43 5.59375C110.357 5.59375 110.295 5.6224 110.243 5.67969C110.191 5.73177 110.165 5.79427 110.165 5.86719C110.165 5.9401 110.191 6.0026 110.243 6.05469C110.295 6.10677 110.357 6.13281 110.43 6.13281C110.503 6.13281 110.566 6.10677 110.618 6.05469C110.675 6.0026 110.704 5.9401 110.704 5.86719ZM114.742 8.78906C114.721 8.92969 114.695 9.0625 114.664 9.1875C114.632 9.30729 114.601 9.41406 114.57 9.50781C114.544 9.59635 114.52 9.66927 114.5 9.72656C114.479 9.78385 114.466 9.8151 114.461 9.82031C114.408 9.9401 114.317 10 114.187 10C114.114 10 114.046 9.97396 113.984 9.92188C113.921 9.86458 113.89 9.79427 113.89 9.71094C113.89 9.67969 113.895 9.65625 113.906 9.64062C113.916 9.625 113.932 9.59375 113.953 9.54688C113.974 9.5 114 9.42188 114.031 9.3125C114.062 9.20312 114.101 9.03385 114.148 8.80469C114.059 8.80469 113.968 8.80208 113.875 8.79688C113.781 8.79167 113.695 8.77344 113.617 8.74219C113.533 8.71094 113.466 8.66146 113.414 8.59375C113.362 8.52604 113.336 8.43229 113.336 8.3125C113.336 8.22396 113.362 8.10417 113.414 7.95312C113.461 7.80208 113.526 7.65365 113.609 7.50781C113.692 7.36198 113.786 7.23698 113.89 7.13281C113.994 7.02344 114.099 6.96875 114.203 6.96875C114.323 6.96875 114.419 7.01302 114.492 7.10156C114.57 7.1901 114.63 7.29948 114.671 7.42969C114.713 7.55469 114.742 7.6875 114.757 7.82812C114.778 7.96875 114.789 8.09115 114.789 8.19531C114.877 8.19531 114.963 8.19531 115.046 8.19531C115.135 8.1901 115.218 8.1875 115.296 8.1875C115.593 8.1875 115.82 8.2526 115.976 8.38281C116.132 8.51302 116.211 8.72656 116.211 9.02344C116.211 9.14323 116.203 9.26823 116.187 9.39844C116.171 9.52865 116.153 9.66406 116.132 9.80469C116.112 9.9401 116.093 10.0755 116.078 10.2109C116.062 10.3464 116.054 10.4792 116.054 10.6094C116.054 10.7969 116.08 10.9531 116.132 11.0781C116.184 11.1979 116.25 11.2943 116.328 11.3672C116.406 11.4401 116.489 11.4922 116.578 11.5234C116.666 11.5495 116.747 11.5625 116.82 11.5625C117.044 11.5625 117.255 11.4896 117.453 11.3438C117.651 11.1979 117.833 11.0234 118 10.8203C118.166 10.612 118.315 10.3932 118.445 10.1641C118.58 9.9349 118.692 9.73438 118.781 9.5625C118.807 9.51562 118.843 9.47917 118.89 9.45312C118.937 9.42708 118.987 9.41406 119.039 9.41406C119.132 9.41406 119.205 9.44531 119.257 9.50781C119.309 9.5651 119.336 9.63021 119.336 9.70312C119.336 9.75521 119.325 9.80208 119.304 9.84375C119.184 10.0573 119.044 10.2995 118.882 10.5703C118.726 10.8359 118.546 11.0859 118.343 11.3203C118.14 11.5547 117.911 11.7526 117.656 11.9141C117.406 12.0755 117.13 12.1562 116.828 12.1562C116.64 12.1562 116.463 12.1198 116.296 12.0469C116.13 11.9792 115.984 11.8802 115.859 11.75C115.739 11.6146 115.643 11.4505 115.57 11.2578C115.497 11.0599 115.461 10.8385 115.461 10.5938C115.461 10.3333 115.487 10.0755 115.539 9.82031C115.591 9.5599 115.617 9.3125 115.617 9.07812C115.617 8.97917 115.593 8.90625 115.546 8.85938C115.505 8.80729 115.408 8.78125 115.257 8.78125C115.184 8.78125 115.104 8.78125 115.015 8.78125C114.932 8.78125 114.841 8.78385 114.742 8.78906ZM114.218 8.21094C114.218 8.17448 114.216 8.1276 114.211 8.07031C114.211 8.00781 114.205 7.94792 114.195 7.89062C114.19 7.83333 114.179 7.78385 114.164 7.74219C114.153 7.70052 114.14 7.67969 114.125 7.67969C114.109 7.67969 114.088 7.70052 114.062 7.74219C114.041 7.77865 114.018 7.82552 113.992 7.88281C113.966 7.9349 113.942 7.99219 113.921 8.05469C113.901 8.11719 113.885 8.16927 113.875 8.21094H114.218ZM123.077 11.1406C122.946 11.1406 122.832 11.1302 122.733 11.1094C122.655 11.2656 122.561 11.4115 122.452 11.5469C122.342 11.6771 122.215 11.7917 122.069 11.8906C121.928 11.9896 121.769 12.0677 121.592 12.125C121.415 12.1823 121.223 12.2109 121.014 12.2109C120.769 12.2109 120.545 12.1667 120.342 12.0781C120.139 11.9948 119.962 11.8776 119.811 11.7266C119.66 11.5703 119.543 11.3854 119.46 11.1719C119.376 10.9531 119.335 10.7135 119.335 10.4531C119.335 10.1198 119.394 9.83073 119.514 9.58594C119.634 9.33594 119.772 9.13021 119.928 8.96875C120.085 8.80208 120.241 8.67969 120.397 8.60156C120.553 8.51823 120.67 8.47656 120.749 8.47656C120.837 8.47656 120.902 8.5 120.944 8.54688C120.991 8.59375 121.014 8.65625 121.014 8.73438C121.014 8.82292 120.986 8.89062 120.928 8.9375C120.876 8.97917 120.808 9.02083 120.725 9.0625C120.642 9.10417 120.553 9.16406 120.46 9.24219C120.366 9.3151 120.277 9.40885 120.194 9.52344C120.116 9.63802 120.051 9.77344 119.999 9.92969C119.946 10.0859 119.92 10.2604 119.92 10.4531C119.92 10.625 119.946 10.7865 119.999 10.9375C120.051 11.0833 120.126 11.2109 120.225 11.3203C120.324 11.4245 120.441 11.5078 120.577 11.5703C120.712 11.6276 120.863 11.6562 121.03 11.6562C121.327 11.6562 121.571 11.5885 121.764 11.4531C121.962 11.3125 122.113 11.1354 122.217 10.9219C121.91 10.7604 121.657 10.5312 121.46 10.2344C121.262 9.9375 121.163 9.60417 121.163 9.23438C121.163 8.9375 121.233 8.69531 121.374 8.50781C121.519 8.32031 121.71 8.22656 121.944 8.22656C122.085 8.22656 122.217 8.26042 122.342 8.32812C122.467 8.39583 122.577 8.5026 122.67 8.64844C122.769 8.79427 122.848 8.98177 122.905 9.21094C122.962 9.4401 122.991 9.71354 122.991 10.0312C122.991 10.1979 122.97 10.3724 122.928 10.5547C122.96 10.5599 122.991 10.5625 123.022 10.5625C123.053 10.5625 123.087 10.5625 123.124 10.5625C123.301 10.5625 123.46 10.5417 123.6 10.5C123.741 10.4583 123.868 10.3958 123.983 10.3125C124.098 10.2292 124.199 10.1224 124.288 9.99219C124.381 9.86198 124.47 9.71094 124.553 9.53906C124.569 9.50781 124.603 9.47917 124.655 9.45312C124.707 9.42188 124.759 9.40625 124.811 9.40625C124.879 9.40625 124.941 9.4349 124.999 9.49219C125.061 9.54427 125.092 9.61458 125.092 9.70312C125.092 9.74479 125.082 9.79167 125.061 9.84375C125.04 9.89062 125.019 9.9349 124.999 9.97656C124.91 10.1328 124.806 10.2839 124.686 10.4297C124.571 10.5703 124.433 10.6953 124.272 10.8047C124.116 10.9089 123.939 10.9922 123.741 11.0547C123.543 11.1172 123.321 11.1458 123.077 11.1406ZM121.741 9.17188C121.741 9.27083 121.754 9.375 121.78 9.48438C121.806 9.59375 121.845 9.70312 121.897 9.8125C121.954 9.91667 122.022 10.0182 122.1 10.1172C122.183 10.2109 122.28 10.2917 122.389 10.3594C122.405 10.25 122.413 10.1432 122.413 10.0391C122.413 9.89844 122.402 9.75521 122.381 9.60938C122.361 9.46354 122.329 9.33073 122.288 9.21094C122.251 9.08594 122.204 8.98698 122.147 8.91406C122.09 8.83594 122.022 8.79688 121.944 8.79688C121.913 8.79688 121.871 8.82031 121.819 8.86719C121.767 8.91406 121.741 9.01562 121.741 9.17188ZM126.099 9.10938C126.068 9.19271 126.029 9.28646 125.982 9.39062C125.94 9.49479 125.891 9.60417 125.833 9.71875C125.787 9.80729 125.737 9.8776 125.685 9.92969C125.638 9.97656 125.576 10 125.498 10C125.409 10 125.339 9.97396 125.287 9.92188C125.235 9.86458 125.208 9.79948 125.208 9.72656C125.208 9.70052 125.211 9.67969 125.216 9.66406C125.222 9.64323 125.235 9.61198 125.255 9.57031C125.391 9.3099 125.49 9.08333 125.552 8.89062C125.62 8.69271 125.675 8.48698 125.716 8.27344C125.68 8.15365 125.654 8.05208 125.638 7.96875C125.623 7.88542 125.615 7.79948 125.615 7.71094C125.615 7.53906 125.651 7.40104 125.724 7.29688C125.797 7.1875 125.899 7.13281 126.029 7.13281C126.149 7.13281 126.242 7.1849 126.31 7.28906C126.383 7.39323 126.419 7.52083 126.419 7.67188C126.419 7.75521 126.412 7.83854 126.396 7.92188C126.38 8.00521 126.36 8.10938 126.333 8.23438C126.453 8.53125 126.573 8.79427 126.693 9.02344C126.813 9.2526 126.919 9.46354 127.013 9.65625C127.107 9.84375 127.182 10.0208 127.24 10.1875C127.302 10.3542 127.333 10.5208 127.333 10.6875C127.333 10.9062 127.289 11.1146 127.201 11.3125C127.112 11.5104 126.966 11.6771 126.763 11.8125C126.789 11.8177 126.815 11.8203 126.841 11.8203C126.867 11.8203 126.893 11.8203 126.919 11.8203C127.216 11.8203 127.49 11.7526 127.74 11.6172C127.99 11.4818 128.214 11.3073 128.412 11.0938C128.615 10.875 128.794 10.6354 128.951 10.375C129.107 10.1094 129.242 9.84635 129.357 9.58594C129.409 9.46615 129.482 9.40625 129.576 9.40625C129.664 9.40625 129.732 9.4375 129.779 9.5C129.831 9.5625 129.857 9.63021 129.857 9.70312C129.857 9.74479 129.849 9.78385 129.833 9.82031C129.776 9.96094 129.701 10.1224 129.607 10.3047C129.518 10.4818 129.409 10.6667 129.279 10.8594C129.154 11.0469 129.008 11.2318 128.841 11.4141C128.675 11.5964 128.487 11.7604 128.279 11.9062C128.076 12.0469 127.852 12.1589 127.607 12.2422C127.362 12.3307 127.094 12.375 126.802 12.375C126.453 12.375 126.128 12.3125 125.826 12.1875C125.529 12.0677 125.287 11.8672 125.099 11.5859C125.068 11.5391 125.052 11.4896 125.052 11.4375C125.052 11.3594 125.081 11.2917 125.138 11.2344C125.201 11.1719 125.271 11.1406 125.349 11.1406C125.432 11.1406 125.503 11.1693 125.56 11.2266C125.565 11.237 125.583 11.2552 125.615 11.2812C125.646 11.3021 125.682 11.3281 125.724 11.3594C125.771 11.3854 125.823 11.4089 125.88 11.4297C125.943 11.4505 126.005 11.4609 126.068 11.4609C126.193 11.4609 126.297 11.4349 126.38 11.3828C126.469 11.3307 126.539 11.2682 126.591 11.1953C126.643 11.1172 126.68 11.0365 126.701 10.9531C126.727 10.8646 126.74 10.7891 126.74 10.7266C126.74 10.5964 126.719 10.4661 126.677 10.3359C126.636 10.2057 126.581 10.0755 126.513 9.94531C126.451 9.8151 126.38 9.68229 126.302 9.54688C126.229 9.40625 126.162 9.26042 126.099 9.10938Z" fill="black"/>
<path d="M5.11912 29.224C3.78579 29.224 2.75112 28.6747 2.01512 27.576V26.712C2.30312 27.352 2.71912 27.8533 3.26312 28.216C3.81779 28.5787 4.47912 28.76 5.24712 28.76C5.78046 28.76 6.27112 28.6427 6.71912 28.408C7.17779 28.1733 7.54046 27.8427 7.80712 27.416C8.07379 26.9893 8.20712 26.4987 8.20712 25.944C8.20712 25.4427 8.12179 25.0107 7.95112 24.648C7.78046 24.2853 7.49779 23.9387 7.10312 23.608C6.70846 23.2667 6.13779 22.8667 5.39112 22.408L4.87912 22.088C4.40979 21.8 4.03112 21.544 3.74312 21.32C3.45512 21.096 3.20446 20.8347 2.99112 20.536C2.71379 20.12 2.57512 19.64 2.57512 19.096C2.57512 18.3707 2.80979 17.8053 3.27912 17.4C3.74846 16.9947 4.34579 16.792 5.07112 16.792C6.05246 16.792 6.83112 17.1547 7.40712 17.88V18.696C7.16179 18.248 6.82579 17.896 6.39912 17.64C5.97246 17.384 5.50312 17.256 4.99112 17.256C4.45779 17.256 4.00979 17.4213 3.64712 17.752C3.28446 18.0827 3.10312 18.5253 3.10312 19.08C3.10312 19.624 3.26846 20.0933 3.59912 20.488C3.94046 20.872 4.51112 21.2933 5.31112 21.752C6.29246 22.328 7.05512 22.8507 7.59912 23.32C7.98312 23.672 8.26046 24.0613 8.43112 24.488C8.61246 24.9147 8.70312 25.3893 8.70312 25.912C8.70312 26.5733 8.54846 27.1547 8.23912 27.656C7.92979 28.1573 7.50312 28.5467 6.95912 28.824C6.41512 29.0907 5.80179 29.224 5.11912 29.224ZM22.5647 29H22.0047L19.7327 24.424H13.3647L11.1407 29H10.5807L16.5647 16.712L22.5647 29ZM19.5407 23.96L16.5327 17.864L13.5887 23.96H19.5407ZM25.0426 17H25.5706V28.536H29.2826V29H25.0426V17ZM42.8126 29H42.2526L39.9806 24.424H33.6126L31.3886 29H30.8286L36.8126 16.712L42.8126 29ZM39.7886 23.96L36.7806 17.864L33.8366 23.96H39.7886ZM34.7006 15.8C34.7006 15.384 34.8126 15.0587 35.0366 14.824C35.2606 14.5893 35.5433 14.472 35.8846 14.472C36.1193 14.472 36.3113 14.5147 36.4606 14.6C36.6206 14.6747 36.7966 14.792 36.9886 14.952C37.1273 15.0693 37.2446 15.16 37.3406 15.224C37.4473 15.2773 37.5646 15.304 37.6926 15.304C38.0766 15.304 38.2686 15.048 38.2686 14.536H38.7806C38.7806 14.952 38.6846 15.2613 38.4926 15.464C38.3006 15.656 38.0286 15.752 37.6766 15.752C37.4739 15.752 37.3033 15.7147 37.1646 15.64C37.0259 15.5653 36.8606 15.448 36.6686 15.288C36.5193 15.16 36.3913 15.0693 36.2846 15.016C36.1886 14.952 36.0713 14.92 35.9326 14.92C35.7086 14.92 35.5326 15.0053 35.4046 15.176C35.2766 15.336 35.2126 15.544 35.2126 15.8H34.7006ZM49.8935 29.32C48.7735 29.32 47.7335 29.0267 46.7735 28.44C45.8135 27.8533 45.0508 27.0747 44.4855 26.104C43.9308 25.1227 43.6535 24.072 43.6535 22.952C43.6535 21.8427 43.9362 20.808 44.5015 19.848C45.0668 18.8773 45.8295 18.1093 46.7895 17.544C47.7495 16.968 48.7895 16.68 49.9095 16.68C51.0402 16.68 52.0802 16.9627 53.0295 17.528C53.9789 18.0933 54.7309 18.8613 55.2855 19.832C55.8508 20.792 56.1335 21.832 56.1335 22.952C56.1335 24.104 55.8508 25.1707 55.2855 26.152C54.7309 27.1227 53.9735 27.896 53.0135 28.472C52.0642 29.0373 51.0242 29.32 49.8935 29.32ZM49.8935 28.856C50.9175 28.856 51.8668 28.5947 52.7415 28.072C53.6162 27.5387 54.3095 26.824 54.8215 25.928C55.3442 25.0213 55.6055 24.04 55.6055 22.984C55.6055 21.9387 55.3495 20.968 54.8375 20.072C54.3255 19.176 53.6322 18.4667 52.7575 17.944C51.8829 17.4107 50.9335 17.144 49.9095 17.144C48.8748 17.144 47.9202 17.4107 47.0455 17.944C46.1708 18.4667 45.4722 19.176 44.9495 20.072C44.4375 20.968 44.1815 21.9387 44.1815 22.984C44.1815 24.04 44.4375 25.0213 44.9495 25.928C45.4722 26.824 46.1708 27.5387 47.0455 28.072C47.9202 28.5947 48.8695 28.856 49.8935 28.856ZM63.0541 17H63.5661C65.4754 17 66.9474 17.5227 67.9821 18.568C69.0274 19.6027 69.5501 21.08 69.5501 23C69.5501 24.0987 69.2834 25.1067 68.7501 26.024C68.2168 26.9413 67.4914 27.6667 66.5741 28.2C65.6674 28.7333 64.6648 29 63.5661 29H63.0541V17ZM63.6941 28.504C64.6754 28.504 65.5714 28.264 66.3821 27.784C67.1928 27.2933 67.8328 26.6267 68.3021 25.784C68.7821 24.9413 69.0221 24.0133 69.0221 23C69.0221 21.2293 68.5581 19.8693 67.6301 18.92C66.7128 17.96 65.4008 17.48 63.6941 17.48H63.5661V28.504H63.6941ZM72.4203 17H76.7243V17.464H72.9483V23.992H76.1003V24.456H72.9483V28.536H76.7243V29H72.4203V17ZM83.3088 17H83.8208C84.6635 17 85.2822 17.1973 85.6768 17.592C86.0715 17.976 86.2688 18.5467 86.2688 19.304C86.2688 19.7413 86.1408 20.1627 85.8848 20.568C85.6288 20.9627 85.3195 21.2293 84.9568 21.368C85.8742 21.5173 86.5835 21.9013 87.0848 22.52C87.5862 23.1387 87.8368 23.9493 87.8368 24.952C87.8368 25.752 87.6608 26.4613 87.3088 27.08C86.9568 27.688 86.4715 28.1627 85.8528 28.504C85.2448 28.8347 84.5675 29 83.8208 29H83.3088V17ZM83.9488 21.224C84.4608 21.224 84.8928 21.0373 85.2448 20.664C85.5968 20.2907 85.7728 19.832 85.7728 19.288C85.7728 18.68 85.6235 18.2213 85.3248 17.912C85.0368 17.6027 84.5782 17.448 83.9488 17.448H83.8208V21.224H83.9488ZM83.9488 28.552C84.5782 28.552 85.1488 28.4027 85.6608 28.104C86.1728 27.7947 86.5782 27.368 86.8768 26.824C87.1755 26.28 87.3248 25.6667 87.3248 24.984C87.3248 23.8853 87.0315 23.0587 86.4448 22.504C85.8688 21.9387 85.0368 21.656 83.9488 21.656H83.8208V28.552H83.9488ZM90.4562 17H94.7602V17.464H90.9842V23.992H94.1362V24.456H90.9842V28.536H94.7602V29H90.4562V17ZM97.1349 17H97.6629V28.536H101.375V29H97.1349V17ZM103.673 17H107.977V17.464H104.201V23.992H107.353V24.456H104.201V28.536H107.977V29H103.673V17ZM114.784 17.464H109.504V17H115.584L110.288 28.536H115.536V29H109.504L114.784 17.464ZM129.137 29H128.577L126.305 24.424H119.937L117.713 29H117.153L123.137 16.712L129.137 29ZM126.113 23.96L123.105 17.864L120.161 23.96H126.113Z" fill="black"/>
<path d="M131 13.5962L-3.8147e-06 13.5962" stroke="black" stroke-width="0.1"/>
</svg>
