<svg width="192" height="192" viewBox="0 0 192 192" fill="none" xmlns="http://www.w3.org/2000/svg">
<g clip-path="url(#clip0_1527_94)">
<path d="M120.533 144.199C112.132 136.203 98.8394 136.532 90.8435 144.933C82.8476 153.334 83.1761 166.626 91.5772 174.622C99.9784 182.618 113.271 182.29 121.267 173.888C129.263 165.487 128.934 152.195 120.533 144.199Z" stroke="#3B82F6" stroke-width="12" stroke-linecap="round" stroke-linejoin="round"/>
<path d="M174.308 87.6988C165.906 79.7029 152.614 80.0314 144.618 88.4325C136.622 96.8337 136.951 110.126 145.352 118.122C153.753 126.118 167.045 125.789 175.041 117.388C183.037 108.987 182.709 95.6947 174.308 87.6988Z" stroke="#1D4ED8" stroke-width="12" stroke-linecap="round" stroke-linejoin="round"/>
<path d="M91.6538 91.8635L139.111 99.5498" stroke="#1D4ED8" stroke-width="12" stroke-linecap="round" stroke-linejoin="round"/>
<path d="M5.52841 77.9181L66.248 87.77" stroke="#1D4ED8" stroke-width="12" stroke-linecap="round" stroke-linejoin="round"/>
<path d="M73.471 6.53234L101.675 138.883" stroke="#3B82F6" stroke-width="12" stroke-linecap="round" stroke-linejoin="round"/>
</g>
<defs>
<clipPath id="clip0_1527_94">
<rect width="192" height="192" fill="white"/>
</clipPath>
</defs>
</svg>
